%TF.GenerationSoftware,KiCad,Pcbnew,8.0.5*%
%TF.CreationDate,2024-11-27T10:58:11-07:00*%
%TF.ProjectId,PS2 PSU,50533220-5053-4552-9e6b-696361645f70,rev?*%
%TF.SameCoordinates,Original*%
%TF.FileFunction,Legend,Top*%
%TF.FilePolarity,Positive*%
%FSLAX46Y46*%
G04 Gerber Fmt 4.6, Leading zero omitted, Abs format (unit mm)*
G04 Created by KiCad (PCBNEW 8.0.5) date 2024-11-27 10:58:11*
%MOMM*%
%LPD*%
G01*
G04 APERTURE LIST*
%ADD10C,0.150000*%
%ADD11C,0.100000*%
%ADD12C,0.000000*%
%ADD13C,0.120000*%
%ADD14C,0.250000*%
%ADD15C,0.127000*%
%ADD16C,0.200000*%
G04 APERTURE END LIST*
D10*
X166652380Y-79226037D02*
X166795237Y-79273656D01*
X166795237Y-79273656D02*
X166842856Y-79321275D01*
X166842856Y-79321275D02*
X166890475Y-79416513D01*
X166890475Y-79416513D02*
X166890475Y-79559370D01*
X166890475Y-79559370D02*
X166842856Y-79654608D01*
X166842856Y-79654608D02*
X166795237Y-79702228D01*
X166795237Y-79702228D02*
X166699999Y-79749847D01*
X166699999Y-79749847D02*
X166319047Y-79749847D01*
X166319047Y-79749847D02*
X166319047Y-78749847D01*
X166319047Y-78749847D02*
X166652380Y-78749847D01*
X166652380Y-78749847D02*
X166747618Y-78797466D01*
X166747618Y-78797466D02*
X166795237Y-78845085D01*
X166795237Y-78845085D02*
X166842856Y-78940323D01*
X166842856Y-78940323D02*
X166842856Y-79035561D01*
X166842856Y-79035561D02*
X166795237Y-79130799D01*
X166795237Y-79130799D02*
X166747618Y-79178418D01*
X166747618Y-79178418D02*
X166652380Y-79226037D01*
X166652380Y-79226037D02*
X166319047Y-79226037D01*
X167319047Y-79749847D02*
X167319047Y-79083180D01*
X167319047Y-78749847D02*
X167271428Y-78797466D01*
X167271428Y-78797466D02*
X167319047Y-78845085D01*
X167319047Y-78845085D02*
X167366666Y-78797466D01*
X167366666Y-78797466D02*
X167319047Y-78749847D01*
X167319047Y-78749847D02*
X167319047Y-78845085D01*
X167652380Y-79083180D02*
X168033332Y-79083180D01*
X167795237Y-78749847D02*
X167795237Y-79606989D01*
X167795237Y-79606989D02*
X167842856Y-79702228D01*
X167842856Y-79702228D02*
X167938094Y-79749847D01*
X167938094Y-79749847D02*
X168033332Y-79749847D01*
X168366666Y-79749847D02*
X168366666Y-78749847D01*
X168366666Y-79130799D02*
X168461904Y-79083180D01*
X168461904Y-79083180D02*
X168652380Y-79083180D01*
X168652380Y-79083180D02*
X168747618Y-79130799D01*
X168747618Y-79130799D02*
X168795237Y-79178418D01*
X168795237Y-79178418D02*
X168842856Y-79273656D01*
X168842856Y-79273656D02*
X168842856Y-79559370D01*
X168842856Y-79559370D02*
X168795237Y-79654608D01*
X168795237Y-79654608D02*
X168747618Y-79702228D01*
X168747618Y-79702228D02*
X168652380Y-79749847D01*
X168652380Y-79749847D02*
X168461904Y-79749847D01*
X168461904Y-79749847D02*
X168366666Y-79702228D01*
X169699999Y-79083180D02*
X169699999Y-79749847D01*
X169271428Y-79083180D02*
X169271428Y-79606989D01*
X169271428Y-79606989D02*
X169319047Y-79702228D01*
X169319047Y-79702228D02*
X169414285Y-79749847D01*
X169414285Y-79749847D02*
X169557142Y-79749847D01*
X169557142Y-79749847D02*
X169652380Y-79702228D01*
X169652380Y-79702228D02*
X169699999Y-79654608D01*
X170176190Y-79749847D02*
X170176190Y-79083180D01*
X170176190Y-78749847D02*
X170128571Y-78797466D01*
X170128571Y-78797466D02*
X170176190Y-78845085D01*
X170176190Y-78845085D02*
X170223809Y-78797466D01*
X170223809Y-78797466D02*
X170176190Y-78749847D01*
X170176190Y-78749847D02*
X170176190Y-78845085D01*
X170795237Y-79749847D02*
X170699999Y-79702228D01*
X170699999Y-79702228D02*
X170652380Y-79606989D01*
X170652380Y-79606989D02*
X170652380Y-78749847D01*
X171033333Y-79083180D02*
X171414285Y-79083180D01*
X171176190Y-78749847D02*
X171176190Y-79606989D01*
X171176190Y-79606989D02*
X171223809Y-79702228D01*
X171223809Y-79702228D02*
X171319047Y-79749847D01*
X171319047Y-79749847D02*
X171414285Y-79749847D01*
X171747619Y-79654608D02*
X171795238Y-79702228D01*
X171795238Y-79702228D02*
X171747619Y-79749847D01*
X171747619Y-79749847D02*
X171700000Y-79702228D01*
X171700000Y-79702228D02*
X171747619Y-79654608D01*
X171747619Y-79654608D02*
X171747619Y-79749847D01*
X172223809Y-79083180D02*
X172223809Y-79749847D01*
X172223809Y-79178418D02*
X172271428Y-79130799D01*
X172271428Y-79130799D02*
X172366666Y-79083180D01*
X172366666Y-79083180D02*
X172509523Y-79083180D01*
X172509523Y-79083180D02*
X172604761Y-79130799D01*
X172604761Y-79130799D02*
X172652380Y-79226037D01*
X172652380Y-79226037D02*
X172652380Y-79749847D01*
X173509523Y-79702228D02*
X173414285Y-79749847D01*
X173414285Y-79749847D02*
X173223809Y-79749847D01*
X173223809Y-79749847D02*
X173128571Y-79702228D01*
X173128571Y-79702228D02*
X173080952Y-79606989D01*
X173080952Y-79606989D02*
X173080952Y-79226037D01*
X173080952Y-79226037D02*
X173128571Y-79130799D01*
X173128571Y-79130799D02*
X173223809Y-79083180D01*
X173223809Y-79083180D02*
X173414285Y-79083180D01*
X173414285Y-79083180D02*
X173509523Y-79130799D01*
X173509523Y-79130799D02*
X173557142Y-79226037D01*
X173557142Y-79226037D02*
X173557142Y-79321275D01*
X173557142Y-79321275D02*
X173080952Y-79416513D01*
X173842857Y-79083180D02*
X174223809Y-79083180D01*
X173985714Y-78749847D02*
X173985714Y-79606989D01*
X173985714Y-79606989D02*
X174033333Y-79702228D01*
X174033333Y-79702228D02*
X174128571Y-79749847D01*
X174128571Y-79749847D02*
X174223809Y-79749847D01*
X168485714Y-80455029D02*
X168533333Y-80407410D01*
X168533333Y-80407410D02*
X168628571Y-80359791D01*
X168628571Y-80359791D02*
X168866666Y-80359791D01*
X168866666Y-80359791D02*
X168961904Y-80407410D01*
X168961904Y-80407410D02*
X169009523Y-80455029D01*
X169009523Y-80455029D02*
X169057142Y-80550267D01*
X169057142Y-80550267D02*
X169057142Y-80645505D01*
X169057142Y-80645505D02*
X169009523Y-80788362D01*
X169009523Y-80788362D02*
X168438095Y-81359791D01*
X168438095Y-81359791D02*
X169057142Y-81359791D01*
X169676190Y-80359791D02*
X169771428Y-80359791D01*
X169771428Y-80359791D02*
X169866666Y-80407410D01*
X169866666Y-80407410D02*
X169914285Y-80455029D01*
X169914285Y-80455029D02*
X169961904Y-80550267D01*
X169961904Y-80550267D02*
X170009523Y-80740743D01*
X170009523Y-80740743D02*
X170009523Y-80978838D01*
X170009523Y-80978838D02*
X169961904Y-81169314D01*
X169961904Y-81169314D02*
X169914285Y-81264552D01*
X169914285Y-81264552D02*
X169866666Y-81312172D01*
X169866666Y-81312172D02*
X169771428Y-81359791D01*
X169771428Y-81359791D02*
X169676190Y-81359791D01*
X169676190Y-81359791D02*
X169580952Y-81312172D01*
X169580952Y-81312172D02*
X169533333Y-81264552D01*
X169533333Y-81264552D02*
X169485714Y-81169314D01*
X169485714Y-81169314D02*
X169438095Y-80978838D01*
X169438095Y-80978838D02*
X169438095Y-80740743D01*
X169438095Y-80740743D02*
X169485714Y-80550267D01*
X169485714Y-80550267D02*
X169533333Y-80455029D01*
X169533333Y-80455029D02*
X169580952Y-80407410D01*
X169580952Y-80407410D02*
X169676190Y-80359791D01*
X170390476Y-80455029D02*
X170438095Y-80407410D01*
X170438095Y-80407410D02*
X170533333Y-80359791D01*
X170533333Y-80359791D02*
X170771428Y-80359791D01*
X170771428Y-80359791D02*
X170866666Y-80407410D01*
X170866666Y-80407410D02*
X170914285Y-80455029D01*
X170914285Y-80455029D02*
X170961904Y-80550267D01*
X170961904Y-80550267D02*
X170961904Y-80645505D01*
X170961904Y-80645505D02*
X170914285Y-80788362D01*
X170914285Y-80788362D02*
X170342857Y-81359791D01*
X170342857Y-81359791D02*
X170961904Y-81359791D01*
X171819047Y-80693124D02*
X171819047Y-81359791D01*
X171580952Y-80312172D02*
X171342857Y-81026457D01*
X171342857Y-81026457D02*
X171961904Y-81026457D01*
D11*
X192341666Y-92401109D02*
X192175000Y-92163014D01*
X192055952Y-92401109D02*
X192055952Y-91901109D01*
X192055952Y-91901109D02*
X192246428Y-91901109D01*
X192246428Y-91901109D02*
X192294047Y-91924919D01*
X192294047Y-91924919D02*
X192317857Y-91948728D01*
X192317857Y-91948728D02*
X192341666Y-91996347D01*
X192341666Y-91996347D02*
X192341666Y-92067776D01*
X192341666Y-92067776D02*
X192317857Y-92115395D01*
X192317857Y-92115395D02*
X192294047Y-92139204D01*
X192294047Y-92139204D02*
X192246428Y-92163014D01*
X192246428Y-92163014D02*
X192055952Y-92163014D01*
X192817857Y-92401109D02*
X192532143Y-92401109D01*
X192675000Y-92401109D02*
X192675000Y-91901109D01*
X192675000Y-91901109D02*
X192627381Y-91972538D01*
X192627381Y-91972538D02*
X192579762Y-92020157D01*
X192579762Y-92020157D02*
X192532143Y-92043966D01*
X165553571Y-83228490D02*
X165529762Y-83252300D01*
X165529762Y-83252300D02*
X165458333Y-83276109D01*
X165458333Y-83276109D02*
X165410714Y-83276109D01*
X165410714Y-83276109D02*
X165339286Y-83252300D01*
X165339286Y-83252300D02*
X165291667Y-83204680D01*
X165291667Y-83204680D02*
X165267857Y-83157061D01*
X165267857Y-83157061D02*
X165244048Y-83061823D01*
X165244048Y-83061823D02*
X165244048Y-82990395D01*
X165244048Y-82990395D02*
X165267857Y-82895157D01*
X165267857Y-82895157D02*
X165291667Y-82847538D01*
X165291667Y-82847538D02*
X165339286Y-82799919D01*
X165339286Y-82799919D02*
X165410714Y-82776109D01*
X165410714Y-82776109D02*
X165458333Y-82776109D01*
X165458333Y-82776109D02*
X165529762Y-82799919D01*
X165529762Y-82799919D02*
X165553571Y-82823728D01*
X166029762Y-83276109D02*
X165744048Y-83276109D01*
X165886905Y-83276109D02*
X165886905Y-82776109D01*
X165886905Y-82776109D02*
X165839286Y-82847538D01*
X165839286Y-82847538D02*
X165791667Y-82895157D01*
X165791667Y-82895157D02*
X165744048Y-82918966D01*
X166220238Y-82823728D02*
X166244047Y-82799919D01*
X166244047Y-82799919D02*
X166291666Y-82776109D01*
X166291666Y-82776109D02*
X166410714Y-82776109D01*
X166410714Y-82776109D02*
X166458333Y-82799919D01*
X166458333Y-82799919D02*
X166482142Y-82823728D01*
X166482142Y-82823728D02*
X166505952Y-82871347D01*
X166505952Y-82871347D02*
X166505952Y-82918966D01*
X166505952Y-82918966D02*
X166482142Y-82990395D01*
X166482142Y-82990395D02*
X166196428Y-83276109D01*
X166196428Y-83276109D02*
X166505952Y-83276109D01*
X161941666Y-83026109D02*
X161775000Y-82788014D01*
X161655952Y-83026109D02*
X161655952Y-82526109D01*
X161655952Y-82526109D02*
X161846428Y-82526109D01*
X161846428Y-82526109D02*
X161894047Y-82549919D01*
X161894047Y-82549919D02*
X161917857Y-82573728D01*
X161917857Y-82573728D02*
X161941666Y-82621347D01*
X161941666Y-82621347D02*
X161941666Y-82692776D01*
X161941666Y-82692776D02*
X161917857Y-82740395D01*
X161917857Y-82740395D02*
X161894047Y-82764204D01*
X161894047Y-82764204D02*
X161846428Y-82788014D01*
X161846428Y-82788014D02*
X161655952Y-82788014D01*
X162227381Y-82740395D02*
X162179762Y-82716585D01*
X162179762Y-82716585D02*
X162155952Y-82692776D01*
X162155952Y-82692776D02*
X162132143Y-82645157D01*
X162132143Y-82645157D02*
X162132143Y-82621347D01*
X162132143Y-82621347D02*
X162155952Y-82573728D01*
X162155952Y-82573728D02*
X162179762Y-82549919D01*
X162179762Y-82549919D02*
X162227381Y-82526109D01*
X162227381Y-82526109D02*
X162322619Y-82526109D01*
X162322619Y-82526109D02*
X162370238Y-82549919D01*
X162370238Y-82549919D02*
X162394047Y-82573728D01*
X162394047Y-82573728D02*
X162417857Y-82621347D01*
X162417857Y-82621347D02*
X162417857Y-82645157D01*
X162417857Y-82645157D02*
X162394047Y-82692776D01*
X162394047Y-82692776D02*
X162370238Y-82716585D01*
X162370238Y-82716585D02*
X162322619Y-82740395D01*
X162322619Y-82740395D02*
X162227381Y-82740395D01*
X162227381Y-82740395D02*
X162179762Y-82764204D01*
X162179762Y-82764204D02*
X162155952Y-82788014D01*
X162155952Y-82788014D02*
X162132143Y-82835633D01*
X162132143Y-82835633D02*
X162132143Y-82930871D01*
X162132143Y-82930871D02*
X162155952Y-82978490D01*
X162155952Y-82978490D02*
X162179762Y-83002300D01*
X162179762Y-83002300D02*
X162227381Y-83026109D01*
X162227381Y-83026109D02*
X162322619Y-83026109D01*
X162322619Y-83026109D02*
X162370238Y-83002300D01*
X162370238Y-83002300D02*
X162394047Y-82978490D01*
X162394047Y-82978490D02*
X162417857Y-82930871D01*
X162417857Y-82930871D02*
X162417857Y-82835633D01*
X162417857Y-82835633D02*
X162394047Y-82788014D01*
X162394047Y-82788014D02*
X162370238Y-82764204D01*
X162370238Y-82764204D02*
X162322619Y-82740395D01*
X172965476Y-82014895D02*
X172965476Y-82662514D01*
X172965476Y-82662514D02*
X173003571Y-82738704D01*
X173003571Y-82738704D02*
X173041666Y-82776800D01*
X173041666Y-82776800D02*
X173117857Y-82814895D01*
X173117857Y-82814895D02*
X173270238Y-82814895D01*
X173270238Y-82814895D02*
X173346428Y-82776800D01*
X173346428Y-82776800D02*
X173384523Y-82738704D01*
X173384523Y-82738704D02*
X173422619Y-82662514D01*
X173422619Y-82662514D02*
X173422619Y-82014895D01*
X173765475Y-82091085D02*
X173803571Y-82052990D01*
X173803571Y-82052990D02*
X173879761Y-82014895D01*
X173879761Y-82014895D02*
X174070237Y-82014895D01*
X174070237Y-82014895D02*
X174146428Y-82052990D01*
X174146428Y-82052990D02*
X174184523Y-82091085D01*
X174184523Y-82091085D02*
X174222618Y-82167276D01*
X174222618Y-82167276D02*
X174222618Y-82243466D01*
X174222618Y-82243466D02*
X174184523Y-82357752D01*
X174184523Y-82357752D02*
X173727380Y-82814895D01*
X173727380Y-82814895D02*
X174222618Y-82814895D01*
X164766666Y-88864895D02*
X164385714Y-88864895D01*
X164385714Y-88864895D02*
X164385714Y-88064895D01*
X164957142Y-88064895D02*
X165452380Y-88064895D01*
X165452380Y-88064895D02*
X165185714Y-88369657D01*
X165185714Y-88369657D02*
X165299999Y-88369657D01*
X165299999Y-88369657D02*
X165376190Y-88407752D01*
X165376190Y-88407752D02*
X165414285Y-88445847D01*
X165414285Y-88445847D02*
X165452380Y-88522038D01*
X165452380Y-88522038D02*
X165452380Y-88712514D01*
X165452380Y-88712514D02*
X165414285Y-88788704D01*
X165414285Y-88788704D02*
X165376190Y-88826800D01*
X165376190Y-88826800D02*
X165299999Y-88864895D01*
X165299999Y-88864895D02*
X165071428Y-88864895D01*
X165071428Y-88864895D02*
X164995237Y-88826800D01*
X164995237Y-88826800D02*
X164957142Y-88788704D01*
X177391666Y-83228490D02*
X177367857Y-83252300D01*
X177367857Y-83252300D02*
X177296428Y-83276109D01*
X177296428Y-83276109D02*
X177248809Y-83276109D01*
X177248809Y-83276109D02*
X177177381Y-83252300D01*
X177177381Y-83252300D02*
X177129762Y-83204680D01*
X177129762Y-83204680D02*
X177105952Y-83157061D01*
X177105952Y-83157061D02*
X177082143Y-83061823D01*
X177082143Y-83061823D02*
X177082143Y-82990395D01*
X177082143Y-82990395D02*
X177105952Y-82895157D01*
X177105952Y-82895157D02*
X177129762Y-82847538D01*
X177129762Y-82847538D02*
X177177381Y-82799919D01*
X177177381Y-82799919D02*
X177248809Y-82776109D01*
X177248809Y-82776109D02*
X177296428Y-82776109D01*
X177296428Y-82776109D02*
X177367857Y-82799919D01*
X177367857Y-82799919D02*
X177391666Y-82823728D01*
X177820238Y-82776109D02*
X177725000Y-82776109D01*
X177725000Y-82776109D02*
X177677381Y-82799919D01*
X177677381Y-82799919D02*
X177653571Y-82823728D01*
X177653571Y-82823728D02*
X177605952Y-82895157D01*
X177605952Y-82895157D02*
X177582143Y-82990395D01*
X177582143Y-82990395D02*
X177582143Y-83180871D01*
X177582143Y-83180871D02*
X177605952Y-83228490D01*
X177605952Y-83228490D02*
X177629762Y-83252300D01*
X177629762Y-83252300D02*
X177677381Y-83276109D01*
X177677381Y-83276109D02*
X177772619Y-83276109D01*
X177772619Y-83276109D02*
X177820238Y-83252300D01*
X177820238Y-83252300D02*
X177844047Y-83228490D01*
X177844047Y-83228490D02*
X177867857Y-83180871D01*
X177867857Y-83180871D02*
X177867857Y-83061823D01*
X177867857Y-83061823D02*
X177844047Y-83014204D01*
X177844047Y-83014204D02*
X177820238Y-82990395D01*
X177820238Y-82990395D02*
X177772619Y-82966585D01*
X177772619Y-82966585D02*
X177677381Y-82966585D01*
X177677381Y-82966585D02*
X177629762Y-82990395D01*
X177629762Y-82990395D02*
X177605952Y-83014204D01*
X177605952Y-83014204D02*
X177582143Y-83061823D01*
X171616666Y-83051109D02*
X171450000Y-82813014D01*
X171330952Y-83051109D02*
X171330952Y-82551109D01*
X171330952Y-82551109D02*
X171521428Y-82551109D01*
X171521428Y-82551109D02*
X171569047Y-82574919D01*
X171569047Y-82574919D02*
X171592857Y-82598728D01*
X171592857Y-82598728D02*
X171616666Y-82646347D01*
X171616666Y-82646347D02*
X171616666Y-82717776D01*
X171616666Y-82717776D02*
X171592857Y-82765395D01*
X171592857Y-82765395D02*
X171569047Y-82789204D01*
X171569047Y-82789204D02*
X171521428Y-82813014D01*
X171521428Y-82813014D02*
X171330952Y-82813014D01*
X172045238Y-82551109D02*
X171950000Y-82551109D01*
X171950000Y-82551109D02*
X171902381Y-82574919D01*
X171902381Y-82574919D02*
X171878571Y-82598728D01*
X171878571Y-82598728D02*
X171830952Y-82670157D01*
X171830952Y-82670157D02*
X171807143Y-82765395D01*
X171807143Y-82765395D02*
X171807143Y-82955871D01*
X171807143Y-82955871D02*
X171830952Y-83003490D01*
X171830952Y-83003490D02*
X171854762Y-83027300D01*
X171854762Y-83027300D02*
X171902381Y-83051109D01*
X171902381Y-83051109D02*
X171997619Y-83051109D01*
X171997619Y-83051109D02*
X172045238Y-83027300D01*
X172045238Y-83027300D02*
X172069047Y-83003490D01*
X172069047Y-83003490D02*
X172092857Y-82955871D01*
X172092857Y-82955871D02*
X172092857Y-82836823D01*
X172092857Y-82836823D02*
X172069047Y-82789204D01*
X172069047Y-82789204D02*
X172045238Y-82765395D01*
X172045238Y-82765395D02*
X171997619Y-82741585D01*
X171997619Y-82741585D02*
X171902381Y-82741585D01*
X171902381Y-82741585D02*
X171854762Y-82765395D01*
X171854762Y-82765395D02*
X171830952Y-82789204D01*
X171830952Y-82789204D02*
X171807143Y-82836823D01*
X186991666Y-83228490D02*
X186967857Y-83252300D01*
X186967857Y-83252300D02*
X186896428Y-83276109D01*
X186896428Y-83276109D02*
X186848809Y-83276109D01*
X186848809Y-83276109D02*
X186777381Y-83252300D01*
X186777381Y-83252300D02*
X186729762Y-83204680D01*
X186729762Y-83204680D02*
X186705952Y-83157061D01*
X186705952Y-83157061D02*
X186682143Y-83061823D01*
X186682143Y-83061823D02*
X186682143Y-82990395D01*
X186682143Y-82990395D02*
X186705952Y-82895157D01*
X186705952Y-82895157D02*
X186729762Y-82847538D01*
X186729762Y-82847538D02*
X186777381Y-82799919D01*
X186777381Y-82799919D02*
X186848809Y-82776109D01*
X186848809Y-82776109D02*
X186896428Y-82776109D01*
X186896428Y-82776109D02*
X186967857Y-82799919D01*
X186967857Y-82799919D02*
X186991666Y-82823728D01*
X187467857Y-83276109D02*
X187182143Y-83276109D01*
X187325000Y-83276109D02*
X187325000Y-82776109D01*
X187325000Y-82776109D02*
X187277381Y-82847538D01*
X187277381Y-82847538D02*
X187229762Y-82895157D01*
X187229762Y-82895157D02*
X187182143Y-82918966D01*
X153603571Y-82953490D02*
X153579762Y-82977300D01*
X153579762Y-82977300D02*
X153508333Y-83001109D01*
X153508333Y-83001109D02*
X153460714Y-83001109D01*
X153460714Y-83001109D02*
X153389286Y-82977300D01*
X153389286Y-82977300D02*
X153341667Y-82929680D01*
X153341667Y-82929680D02*
X153317857Y-82882061D01*
X153317857Y-82882061D02*
X153294048Y-82786823D01*
X153294048Y-82786823D02*
X153294048Y-82715395D01*
X153294048Y-82715395D02*
X153317857Y-82620157D01*
X153317857Y-82620157D02*
X153341667Y-82572538D01*
X153341667Y-82572538D02*
X153389286Y-82524919D01*
X153389286Y-82524919D02*
X153460714Y-82501109D01*
X153460714Y-82501109D02*
X153508333Y-82501109D01*
X153508333Y-82501109D02*
X153579762Y-82524919D01*
X153579762Y-82524919D02*
X153603571Y-82548728D01*
X154079762Y-83001109D02*
X153794048Y-83001109D01*
X153936905Y-83001109D02*
X153936905Y-82501109D01*
X153936905Y-82501109D02*
X153889286Y-82572538D01*
X153889286Y-82572538D02*
X153841667Y-82620157D01*
X153841667Y-82620157D02*
X153794048Y-82643966D01*
X154508333Y-82501109D02*
X154413095Y-82501109D01*
X154413095Y-82501109D02*
X154365476Y-82524919D01*
X154365476Y-82524919D02*
X154341666Y-82548728D01*
X154341666Y-82548728D02*
X154294047Y-82620157D01*
X154294047Y-82620157D02*
X154270238Y-82715395D01*
X154270238Y-82715395D02*
X154270238Y-82905871D01*
X154270238Y-82905871D02*
X154294047Y-82953490D01*
X154294047Y-82953490D02*
X154317857Y-82977300D01*
X154317857Y-82977300D02*
X154365476Y-83001109D01*
X154365476Y-83001109D02*
X154460714Y-83001109D01*
X154460714Y-83001109D02*
X154508333Y-82977300D01*
X154508333Y-82977300D02*
X154532142Y-82953490D01*
X154532142Y-82953490D02*
X154555952Y-82905871D01*
X154555952Y-82905871D02*
X154555952Y-82786823D01*
X154555952Y-82786823D02*
X154532142Y-82739204D01*
X154532142Y-82739204D02*
X154508333Y-82715395D01*
X154508333Y-82715395D02*
X154460714Y-82691585D01*
X154460714Y-82691585D02*
X154365476Y-82691585D01*
X154365476Y-82691585D02*
X154317857Y-82715395D01*
X154317857Y-82715395D02*
X154294047Y-82739204D01*
X154294047Y-82739204D02*
X154270238Y-82786823D01*
X153690476Y-86139895D02*
X153690476Y-86787514D01*
X153690476Y-86787514D02*
X153728571Y-86863704D01*
X153728571Y-86863704D02*
X153766666Y-86901800D01*
X153766666Y-86901800D02*
X153842857Y-86939895D01*
X153842857Y-86939895D02*
X153995238Y-86939895D01*
X153995238Y-86939895D02*
X154071428Y-86901800D01*
X154071428Y-86901800D02*
X154109523Y-86863704D01*
X154109523Y-86863704D02*
X154147619Y-86787514D01*
X154147619Y-86787514D02*
X154147619Y-86139895D01*
X154871428Y-86406561D02*
X154871428Y-86939895D01*
X154680952Y-86101800D02*
X154490475Y-86673228D01*
X154490475Y-86673228D02*
X154985714Y-86673228D01*
X200164895Y-84991666D02*
X200736323Y-84991666D01*
X200736323Y-84991666D02*
X200850609Y-85029761D01*
X200850609Y-85029761D02*
X200926800Y-85105952D01*
X200926800Y-85105952D02*
X200964895Y-85220237D01*
X200964895Y-85220237D02*
X200964895Y-85296428D01*
X200964895Y-84191666D02*
X200964895Y-84648809D01*
X200964895Y-84420237D02*
X200164895Y-84420237D01*
X200164895Y-84420237D02*
X200279180Y-84496428D01*
X200279180Y-84496428D02*
X200355371Y-84572618D01*
X200355371Y-84572618D02*
X200393466Y-84648809D01*
X163315476Y-81939895D02*
X163315476Y-82587514D01*
X163315476Y-82587514D02*
X163353571Y-82663704D01*
X163353571Y-82663704D02*
X163391666Y-82701800D01*
X163391666Y-82701800D02*
X163467857Y-82739895D01*
X163467857Y-82739895D02*
X163620238Y-82739895D01*
X163620238Y-82739895D02*
X163696428Y-82701800D01*
X163696428Y-82701800D02*
X163734523Y-82663704D01*
X163734523Y-82663704D02*
X163772619Y-82587514D01*
X163772619Y-82587514D02*
X163772619Y-81939895D01*
X164077380Y-81939895D02*
X164572618Y-81939895D01*
X164572618Y-81939895D02*
X164305952Y-82244657D01*
X164305952Y-82244657D02*
X164420237Y-82244657D01*
X164420237Y-82244657D02*
X164496428Y-82282752D01*
X164496428Y-82282752D02*
X164534523Y-82320847D01*
X164534523Y-82320847D02*
X164572618Y-82397038D01*
X164572618Y-82397038D02*
X164572618Y-82587514D01*
X164572618Y-82587514D02*
X164534523Y-82663704D01*
X164534523Y-82663704D02*
X164496428Y-82701800D01*
X164496428Y-82701800D02*
X164420237Y-82739895D01*
X164420237Y-82739895D02*
X164191666Y-82739895D01*
X164191666Y-82739895D02*
X164115475Y-82701800D01*
X164115475Y-82701800D02*
X164077380Y-82663704D01*
X170116666Y-83051109D02*
X169950000Y-82813014D01*
X169830952Y-83051109D02*
X169830952Y-82551109D01*
X169830952Y-82551109D02*
X170021428Y-82551109D01*
X170021428Y-82551109D02*
X170069047Y-82574919D01*
X170069047Y-82574919D02*
X170092857Y-82598728D01*
X170092857Y-82598728D02*
X170116666Y-82646347D01*
X170116666Y-82646347D02*
X170116666Y-82717776D01*
X170116666Y-82717776D02*
X170092857Y-82765395D01*
X170092857Y-82765395D02*
X170069047Y-82789204D01*
X170069047Y-82789204D02*
X170021428Y-82813014D01*
X170021428Y-82813014D02*
X169830952Y-82813014D01*
X170569047Y-82551109D02*
X170330952Y-82551109D01*
X170330952Y-82551109D02*
X170307143Y-82789204D01*
X170307143Y-82789204D02*
X170330952Y-82765395D01*
X170330952Y-82765395D02*
X170378571Y-82741585D01*
X170378571Y-82741585D02*
X170497619Y-82741585D01*
X170497619Y-82741585D02*
X170545238Y-82765395D01*
X170545238Y-82765395D02*
X170569047Y-82789204D01*
X170569047Y-82789204D02*
X170592857Y-82836823D01*
X170592857Y-82836823D02*
X170592857Y-82955871D01*
X170592857Y-82955871D02*
X170569047Y-83003490D01*
X170569047Y-83003490D02*
X170545238Y-83027300D01*
X170545238Y-83027300D02*
X170497619Y-83051109D01*
X170497619Y-83051109D02*
X170378571Y-83051109D01*
X170378571Y-83051109D02*
X170330952Y-83027300D01*
X170330952Y-83027300D02*
X170307143Y-83003490D01*
X176066666Y-92128490D02*
X176042857Y-92152300D01*
X176042857Y-92152300D02*
X175971428Y-92176109D01*
X175971428Y-92176109D02*
X175923809Y-92176109D01*
X175923809Y-92176109D02*
X175852381Y-92152300D01*
X175852381Y-92152300D02*
X175804762Y-92104680D01*
X175804762Y-92104680D02*
X175780952Y-92057061D01*
X175780952Y-92057061D02*
X175757143Y-91961823D01*
X175757143Y-91961823D02*
X175757143Y-91890395D01*
X175757143Y-91890395D02*
X175780952Y-91795157D01*
X175780952Y-91795157D02*
X175804762Y-91747538D01*
X175804762Y-91747538D02*
X175852381Y-91699919D01*
X175852381Y-91699919D02*
X175923809Y-91676109D01*
X175923809Y-91676109D02*
X175971428Y-91676109D01*
X175971428Y-91676109D02*
X176042857Y-91699919D01*
X176042857Y-91699919D02*
X176066666Y-91723728D01*
X176233333Y-91676109D02*
X176542857Y-91676109D01*
X176542857Y-91676109D02*
X176376190Y-91866585D01*
X176376190Y-91866585D02*
X176447619Y-91866585D01*
X176447619Y-91866585D02*
X176495238Y-91890395D01*
X176495238Y-91890395D02*
X176519047Y-91914204D01*
X176519047Y-91914204D02*
X176542857Y-91961823D01*
X176542857Y-91961823D02*
X176542857Y-92080871D01*
X176542857Y-92080871D02*
X176519047Y-92128490D01*
X176519047Y-92128490D02*
X176495238Y-92152300D01*
X176495238Y-92152300D02*
X176447619Y-92176109D01*
X176447619Y-92176109D02*
X176304762Y-92176109D01*
X176304762Y-92176109D02*
X176257143Y-92152300D01*
X176257143Y-92152300D02*
X176233333Y-92128490D01*
X156328571Y-94103490D02*
X156304762Y-94127300D01*
X156304762Y-94127300D02*
X156233333Y-94151109D01*
X156233333Y-94151109D02*
X156185714Y-94151109D01*
X156185714Y-94151109D02*
X156114286Y-94127300D01*
X156114286Y-94127300D02*
X156066667Y-94079680D01*
X156066667Y-94079680D02*
X156042857Y-94032061D01*
X156042857Y-94032061D02*
X156019048Y-93936823D01*
X156019048Y-93936823D02*
X156019048Y-93865395D01*
X156019048Y-93865395D02*
X156042857Y-93770157D01*
X156042857Y-93770157D02*
X156066667Y-93722538D01*
X156066667Y-93722538D02*
X156114286Y-93674919D01*
X156114286Y-93674919D02*
X156185714Y-93651109D01*
X156185714Y-93651109D02*
X156233333Y-93651109D01*
X156233333Y-93651109D02*
X156304762Y-93674919D01*
X156304762Y-93674919D02*
X156328571Y-93698728D01*
X156804762Y-94151109D02*
X156519048Y-94151109D01*
X156661905Y-94151109D02*
X156661905Y-93651109D01*
X156661905Y-93651109D02*
X156614286Y-93722538D01*
X156614286Y-93722538D02*
X156566667Y-93770157D01*
X156566667Y-93770157D02*
X156519048Y-93793966D01*
X157233333Y-93817776D02*
X157233333Y-94151109D01*
X157114285Y-93627300D02*
X156995238Y-93984442D01*
X156995238Y-93984442D02*
X157304761Y-93984442D01*
X175441666Y-83228490D02*
X175417857Y-83252300D01*
X175417857Y-83252300D02*
X175346428Y-83276109D01*
X175346428Y-83276109D02*
X175298809Y-83276109D01*
X175298809Y-83276109D02*
X175227381Y-83252300D01*
X175227381Y-83252300D02*
X175179762Y-83204680D01*
X175179762Y-83204680D02*
X175155952Y-83157061D01*
X175155952Y-83157061D02*
X175132143Y-83061823D01*
X175132143Y-83061823D02*
X175132143Y-82990395D01*
X175132143Y-82990395D02*
X175155952Y-82895157D01*
X175155952Y-82895157D02*
X175179762Y-82847538D01*
X175179762Y-82847538D02*
X175227381Y-82799919D01*
X175227381Y-82799919D02*
X175298809Y-82776109D01*
X175298809Y-82776109D02*
X175346428Y-82776109D01*
X175346428Y-82776109D02*
X175417857Y-82799919D01*
X175417857Y-82799919D02*
X175441666Y-82823728D01*
X175608333Y-82776109D02*
X175941666Y-82776109D01*
X175941666Y-82776109D02*
X175727381Y-83276109D01*
D10*
X189408095Y-101562438D02*
X189312857Y-101514819D01*
X189312857Y-101514819D02*
X189170000Y-101514819D01*
X189170000Y-101514819D02*
X189027143Y-101562438D01*
X189027143Y-101562438D02*
X188931905Y-101657676D01*
X188931905Y-101657676D02*
X188884286Y-101752914D01*
X188884286Y-101752914D02*
X188836667Y-101943390D01*
X188836667Y-101943390D02*
X188836667Y-102086247D01*
X188836667Y-102086247D02*
X188884286Y-102276723D01*
X188884286Y-102276723D02*
X188931905Y-102371961D01*
X188931905Y-102371961D02*
X189027143Y-102467200D01*
X189027143Y-102467200D02*
X189170000Y-102514819D01*
X189170000Y-102514819D02*
X189265238Y-102514819D01*
X189265238Y-102514819D02*
X189408095Y-102467200D01*
X189408095Y-102467200D02*
X189455714Y-102419580D01*
X189455714Y-102419580D02*
X189455714Y-102086247D01*
X189455714Y-102086247D02*
X189265238Y-102086247D01*
X189884286Y-102514819D02*
X189884286Y-101514819D01*
X189884286Y-101514819D02*
X190455714Y-102514819D01*
X190455714Y-102514819D02*
X190455714Y-101514819D01*
X190931905Y-102514819D02*
X190931905Y-101514819D01*
X190931905Y-101514819D02*
X191170000Y-101514819D01*
X191170000Y-101514819D02*
X191312857Y-101562438D01*
X191312857Y-101562438D02*
X191408095Y-101657676D01*
X191408095Y-101657676D02*
X191455714Y-101752914D01*
X191455714Y-101752914D02*
X191503333Y-101943390D01*
X191503333Y-101943390D02*
X191503333Y-102086247D01*
X191503333Y-102086247D02*
X191455714Y-102276723D01*
X191455714Y-102276723D02*
X191408095Y-102371961D01*
X191408095Y-102371961D02*
X191312857Y-102467200D01*
X191312857Y-102467200D02*
X191170000Y-102514819D01*
X191170000Y-102514819D02*
X190931905Y-102514819D01*
D11*
X160491666Y-83026109D02*
X160325000Y-82788014D01*
X160205952Y-83026109D02*
X160205952Y-82526109D01*
X160205952Y-82526109D02*
X160396428Y-82526109D01*
X160396428Y-82526109D02*
X160444047Y-82549919D01*
X160444047Y-82549919D02*
X160467857Y-82573728D01*
X160467857Y-82573728D02*
X160491666Y-82621347D01*
X160491666Y-82621347D02*
X160491666Y-82692776D01*
X160491666Y-82692776D02*
X160467857Y-82740395D01*
X160467857Y-82740395D02*
X160444047Y-82764204D01*
X160444047Y-82764204D02*
X160396428Y-82788014D01*
X160396428Y-82788014D02*
X160205952Y-82788014D01*
X160658333Y-82526109D02*
X160991666Y-82526109D01*
X160991666Y-82526109D02*
X160777381Y-83026109D01*
X166391666Y-94078490D02*
X166367857Y-94102300D01*
X166367857Y-94102300D02*
X166296428Y-94126109D01*
X166296428Y-94126109D02*
X166248809Y-94126109D01*
X166248809Y-94126109D02*
X166177381Y-94102300D01*
X166177381Y-94102300D02*
X166129762Y-94054680D01*
X166129762Y-94054680D02*
X166105952Y-94007061D01*
X166105952Y-94007061D02*
X166082143Y-93911823D01*
X166082143Y-93911823D02*
X166082143Y-93840395D01*
X166082143Y-93840395D02*
X166105952Y-93745157D01*
X166105952Y-93745157D02*
X166129762Y-93697538D01*
X166129762Y-93697538D02*
X166177381Y-93649919D01*
X166177381Y-93649919D02*
X166248809Y-93626109D01*
X166248809Y-93626109D02*
X166296428Y-93626109D01*
X166296428Y-93626109D02*
X166367857Y-93649919D01*
X166367857Y-93649919D02*
X166391666Y-93673728D01*
X166629762Y-94126109D02*
X166725000Y-94126109D01*
X166725000Y-94126109D02*
X166772619Y-94102300D01*
X166772619Y-94102300D02*
X166796428Y-94078490D01*
X166796428Y-94078490D02*
X166844047Y-94007061D01*
X166844047Y-94007061D02*
X166867857Y-93911823D01*
X166867857Y-93911823D02*
X166867857Y-93721347D01*
X166867857Y-93721347D02*
X166844047Y-93673728D01*
X166844047Y-93673728D02*
X166820238Y-93649919D01*
X166820238Y-93649919D02*
X166772619Y-93626109D01*
X166772619Y-93626109D02*
X166677381Y-93626109D01*
X166677381Y-93626109D02*
X166629762Y-93649919D01*
X166629762Y-93649919D02*
X166605952Y-93673728D01*
X166605952Y-93673728D02*
X166582143Y-93721347D01*
X166582143Y-93721347D02*
X166582143Y-93840395D01*
X166582143Y-93840395D02*
X166605952Y-93888014D01*
X166605952Y-93888014D02*
X166629762Y-93911823D01*
X166629762Y-93911823D02*
X166677381Y-93935633D01*
X166677381Y-93935633D02*
X166772619Y-93935633D01*
X166772619Y-93935633D02*
X166820238Y-93911823D01*
X166820238Y-93911823D02*
X166844047Y-93888014D01*
X166844047Y-93888014D02*
X166867857Y-93840395D01*
X152803571Y-91678490D02*
X152779762Y-91702300D01*
X152779762Y-91702300D02*
X152708333Y-91726109D01*
X152708333Y-91726109D02*
X152660714Y-91726109D01*
X152660714Y-91726109D02*
X152589286Y-91702300D01*
X152589286Y-91702300D02*
X152541667Y-91654680D01*
X152541667Y-91654680D02*
X152517857Y-91607061D01*
X152517857Y-91607061D02*
X152494048Y-91511823D01*
X152494048Y-91511823D02*
X152494048Y-91440395D01*
X152494048Y-91440395D02*
X152517857Y-91345157D01*
X152517857Y-91345157D02*
X152541667Y-91297538D01*
X152541667Y-91297538D02*
X152589286Y-91249919D01*
X152589286Y-91249919D02*
X152660714Y-91226109D01*
X152660714Y-91226109D02*
X152708333Y-91226109D01*
X152708333Y-91226109D02*
X152779762Y-91249919D01*
X152779762Y-91249919D02*
X152803571Y-91273728D01*
X153279762Y-91726109D02*
X152994048Y-91726109D01*
X153136905Y-91726109D02*
X153136905Y-91226109D01*
X153136905Y-91226109D02*
X153089286Y-91297538D01*
X153089286Y-91297538D02*
X153041667Y-91345157D01*
X153041667Y-91345157D02*
X152994048Y-91368966D01*
X153565476Y-91440395D02*
X153517857Y-91416585D01*
X153517857Y-91416585D02*
X153494047Y-91392776D01*
X153494047Y-91392776D02*
X153470238Y-91345157D01*
X153470238Y-91345157D02*
X153470238Y-91321347D01*
X153470238Y-91321347D02*
X153494047Y-91273728D01*
X153494047Y-91273728D02*
X153517857Y-91249919D01*
X153517857Y-91249919D02*
X153565476Y-91226109D01*
X153565476Y-91226109D02*
X153660714Y-91226109D01*
X153660714Y-91226109D02*
X153708333Y-91249919D01*
X153708333Y-91249919D02*
X153732142Y-91273728D01*
X153732142Y-91273728D02*
X153755952Y-91321347D01*
X153755952Y-91321347D02*
X153755952Y-91345157D01*
X153755952Y-91345157D02*
X153732142Y-91392776D01*
X153732142Y-91392776D02*
X153708333Y-91416585D01*
X153708333Y-91416585D02*
X153660714Y-91440395D01*
X153660714Y-91440395D02*
X153565476Y-91440395D01*
X153565476Y-91440395D02*
X153517857Y-91464204D01*
X153517857Y-91464204D02*
X153494047Y-91488014D01*
X153494047Y-91488014D02*
X153470238Y-91535633D01*
X153470238Y-91535633D02*
X153470238Y-91630871D01*
X153470238Y-91630871D02*
X153494047Y-91678490D01*
X153494047Y-91678490D02*
X153517857Y-91702300D01*
X153517857Y-91702300D02*
X153565476Y-91726109D01*
X153565476Y-91726109D02*
X153660714Y-91726109D01*
X153660714Y-91726109D02*
X153708333Y-91702300D01*
X153708333Y-91702300D02*
X153732142Y-91678490D01*
X153732142Y-91678490D02*
X153755952Y-91630871D01*
X153755952Y-91630871D02*
X153755952Y-91535633D01*
X153755952Y-91535633D02*
X153732142Y-91488014D01*
X153732142Y-91488014D02*
X153708333Y-91464204D01*
X153708333Y-91464204D02*
X153660714Y-91440395D01*
X150203571Y-82953490D02*
X150179762Y-82977300D01*
X150179762Y-82977300D02*
X150108333Y-83001109D01*
X150108333Y-83001109D02*
X150060714Y-83001109D01*
X150060714Y-83001109D02*
X149989286Y-82977300D01*
X149989286Y-82977300D02*
X149941667Y-82929680D01*
X149941667Y-82929680D02*
X149917857Y-82882061D01*
X149917857Y-82882061D02*
X149894048Y-82786823D01*
X149894048Y-82786823D02*
X149894048Y-82715395D01*
X149894048Y-82715395D02*
X149917857Y-82620157D01*
X149917857Y-82620157D02*
X149941667Y-82572538D01*
X149941667Y-82572538D02*
X149989286Y-82524919D01*
X149989286Y-82524919D02*
X150060714Y-82501109D01*
X150060714Y-82501109D02*
X150108333Y-82501109D01*
X150108333Y-82501109D02*
X150179762Y-82524919D01*
X150179762Y-82524919D02*
X150203571Y-82548728D01*
X150679762Y-83001109D02*
X150394048Y-83001109D01*
X150536905Y-83001109D02*
X150536905Y-82501109D01*
X150536905Y-82501109D02*
X150489286Y-82572538D01*
X150489286Y-82572538D02*
X150441667Y-82620157D01*
X150441667Y-82620157D02*
X150394048Y-82643966D01*
X150917857Y-83001109D02*
X151013095Y-83001109D01*
X151013095Y-83001109D02*
X151060714Y-82977300D01*
X151060714Y-82977300D02*
X151084523Y-82953490D01*
X151084523Y-82953490D02*
X151132142Y-82882061D01*
X151132142Y-82882061D02*
X151155952Y-82786823D01*
X151155952Y-82786823D02*
X151155952Y-82596347D01*
X151155952Y-82596347D02*
X151132142Y-82548728D01*
X151132142Y-82548728D02*
X151108333Y-82524919D01*
X151108333Y-82524919D02*
X151060714Y-82501109D01*
X151060714Y-82501109D02*
X150965476Y-82501109D01*
X150965476Y-82501109D02*
X150917857Y-82524919D01*
X150917857Y-82524919D02*
X150894047Y-82548728D01*
X150894047Y-82548728D02*
X150870238Y-82596347D01*
X150870238Y-82596347D02*
X150870238Y-82715395D01*
X150870238Y-82715395D02*
X150894047Y-82763014D01*
X150894047Y-82763014D02*
X150917857Y-82786823D01*
X150917857Y-82786823D02*
X150965476Y-82810633D01*
X150965476Y-82810633D02*
X151060714Y-82810633D01*
X151060714Y-82810633D02*
X151108333Y-82786823D01*
X151108333Y-82786823D02*
X151132142Y-82763014D01*
X151132142Y-82763014D02*
X151155952Y-82715395D01*
X156278571Y-92103490D02*
X156254762Y-92127300D01*
X156254762Y-92127300D02*
X156183333Y-92151109D01*
X156183333Y-92151109D02*
X156135714Y-92151109D01*
X156135714Y-92151109D02*
X156064286Y-92127300D01*
X156064286Y-92127300D02*
X156016667Y-92079680D01*
X156016667Y-92079680D02*
X155992857Y-92032061D01*
X155992857Y-92032061D02*
X155969048Y-91936823D01*
X155969048Y-91936823D02*
X155969048Y-91865395D01*
X155969048Y-91865395D02*
X155992857Y-91770157D01*
X155992857Y-91770157D02*
X156016667Y-91722538D01*
X156016667Y-91722538D02*
X156064286Y-91674919D01*
X156064286Y-91674919D02*
X156135714Y-91651109D01*
X156135714Y-91651109D02*
X156183333Y-91651109D01*
X156183333Y-91651109D02*
X156254762Y-91674919D01*
X156254762Y-91674919D02*
X156278571Y-91698728D01*
X156754762Y-92151109D02*
X156469048Y-92151109D01*
X156611905Y-92151109D02*
X156611905Y-91651109D01*
X156611905Y-91651109D02*
X156564286Y-91722538D01*
X156564286Y-91722538D02*
X156516667Y-91770157D01*
X156516667Y-91770157D02*
X156469048Y-91793966D01*
X156921428Y-91651109D02*
X157230952Y-91651109D01*
X157230952Y-91651109D02*
X157064285Y-91841585D01*
X157064285Y-91841585D02*
X157135714Y-91841585D01*
X157135714Y-91841585D02*
X157183333Y-91865395D01*
X157183333Y-91865395D02*
X157207142Y-91889204D01*
X157207142Y-91889204D02*
X157230952Y-91936823D01*
X157230952Y-91936823D02*
X157230952Y-92055871D01*
X157230952Y-92055871D02*
X157207142Y-92103490D01*
X157207142Y-92103490D02*
X157183333Y-92127300D01*
X157183333Y-92127300D02*
X157135714Y-92151109D01*
X157135714Y-92151109D02*
X156992857Y-92151109D01*
X156992857Y-92151109D02*
X156945238Y-92127300D01*
X156945238Y-92127300D02*
X156921428Y-92103490D01*
D10*
X151003571Y-102354819D02*
X150432143Y-102354819D01*
X150717857Y-102354819D02*
X150717857Y-101354819D01*
X150717857Y-101354819D02*
X150622619Y-101497676D01*
X150622619Y-101497676D02*
X150527381Y-101592914D01*
X150527381Y-101592914D02*
X150432143Y-101640533D01*
X151336905Y-101688152D02*
X151575000Y-102354819D01*
X151575000Y-102354819D02*
X151813095Y-101688152D01*
X152336905Y-101783390D02*
X152241667Y-101735771D01*
X152241667Y-101735771D02*
X152194048Y-101688152D01*
X152194048Y-101688152D02*
X152146429Y-101592914D01*
X152146429Y-101592914D02*
X152146429Y-101545295D01*
X152146429Y-101545295D02*
X152194048Y-101450057D01*
X152194048Y-101450057D02*
X152241667Y-101402438D01*
X152241667Y-101402438D02*
X152336905Y-101354819D01*
X152336905Y-101354819D02*
X152527381Y-101354819D01*
X152527381Y-101354819D02*
X152622619Y-101402438D01*
X152622619Y-101402438D02*
X152670238Y-101450057D01*
X152670238Y-101450057D02*
X152717857Y-101545295D01*
X152717857Y-101545295D02*
X152717857Y-101592914D01*
X152717857Y-101592914D02*
X152670238Y-101688152D01*
X152670238Y-101688152D02*
X152622619Y-101735771D01*
X152622619Y-101735771D02*
X152527381Y-101783390D01*
X152527381Y-101783390D02*
X152336905Y-101783390D01*
X152336905Y-101783390D02*
X152241667Y-101831009D01*
X152241667Y-101831009D02*
X152194048Y-101878628D01*
X152194048Y-101878628D02*
X152146429Y-101973866D01*
X152146429Y-101973866D02*
X152146429Y-102164342D01*
X152146429Y-102164342D02*
X152194048Y-102259580D01*
X152194048Y-102259580D02*
X152241667Y-102307200D01*
X152241667Y-102307200D02*
X152336905Y-102354819D01*
X152336905Y-102354819D02*
X152527381Y-102354819D01*
X152527381Y-102354819D02*
X152622619Y-102307200D01*
X152622619Y-102307200D02*
X152670238Y-102259580D01*
X152670238Y-102259580D02*
X152717857Y-102164342D01*
X152717857Y-102164342D02*
X152717857Y-101973866D01*
X152717857Y-101973866D02*
X152670238Y-101878628D01*
X152670238Y-101878628D02*
X152622619Y-101831009D01*
X152622619Y-101831009D02*
X152527381Y-101783390D01*
X161129761Y-102504819D02*
X160558333Y-102504819D01*
X160844047Y-102504819D02*
X160844047Y-101504819D01*
X160844047Y-101504819D02*
X160748809Y-101647676D01*
X160748809Y-101647676D02*
X160653571Y-101742914D01*
X160653571Y-101742914D02*
X160558333Y-101790533D01*
X161463095Y-101838152D02*
X161701190Y-102504819D01*
X161701190Y-102504819D02*
X161939285Y-101838152D01*
D11*
X167528571Y-83228490D02*
X167504762Y-83252300D01*
X167504762Y-83252300D02*
X167433333Y-83276109D01*
X167433333Y-83276109D02*
X167385714Y-83276109D01*
X167385714Y-83276109D02*
X167314286Y-83252300D01*
X167314286Y-83252300D02*
X167266667Y-83204680D01*
X167266667Y-83204680D02*
X167242857Y-83157061D01*
X167242857Y-83157061D02*
X167219048Y-83061823D01*
X167219048Y-83061823D02*
X167219048Y-82990395D01*
X167219048Y-82990395D02*
X167242857Y-82895157D01*
X167242857Y-82895157D02*
X167266667Y-82847538D01*
X167266667Y-82847538D02*
X167314286Y-82799919D01*
X167314286Y-82799919D02*
X167385714Y-82776109D01*
X167385714Y-82776109D02*
X167433333Y-82776109D01*
X167433333Y-82776109D02*
X167504762Y-82799919D01*
X167504762Y-82799919D02*
X167528571Y-82823728D01*
X168004762Y-83276109D02*
X167719048Y-83276109D01*
X167861905Y-83276109D02*
X167861905Y-82776109D01*
X167861905Y-82776109D02*
X167814286Y-82847538D01*
X167814286Y-82847538D02*
X167766667Y-82895157D01*
X167766667Y-82895157D02*
X167719048Y-82918966D01*
X168480952Y-83276109D02*
X168195238Y-83276109D01*
X168338095Y-83276109D02*
X168338095Y-82776109D01*
X168338095Y-82776109D02*
X168290476Y-82847538D01*
X168290476Y-82847538D02*
X168242857Y-82895157D01*
X168242857Y-82895157D02*
X168195238Y-82918966D01*
X183991666Y-88889895D02*
X183610714Y-88889895D01*
X183610714Y-88889895D02*
X183610714Y-88089895D01*
X184677380Y-88889895D02*
X184220237Y-88889895D01*
X184448809Y-88889895D02*
X184448809Y-88089895D01*
X184448809Y-88089895D02*
X184372618Y-88204180D01*
X184372618Y-88204180D02*
X184296428Y-88280371D01*
X184296428Y-88280371D02*
X184220237Y-88318466D01*
X174351666Y-88889895D02*
X173970714Y-88889895D01*
X173970714Y-88889895D02*
X173970714Y-88089895D01*
X174580237Y-88166085D02*
X174618333Y-88127990D01*
X174618333Y-88127990D02*
X174694523Y-88089895D01*
X174694523Y-88089895D02*
X174884999Y-88089895D01*
X174884999Y-88089895D02*
X174961190Y-88127990D01*
X174961190Y-88127990D02*
X174999285Y-88166085D01*
X174999285Y-88166085D02*
X175037380Y-88242276D01*
X175037380Y-88242276D02*
X175037380Y-88318466D01*
X175037380Y-88318466D02*
X174999285Y-88432752D01*
X174999285Y-88432752D02*
X174542142Y-88889895D01*
X174542142Y-88889895D02*
X175037380Y-88889895D01*
X185016666Y-83228490D02*
X184992857Y-83252300D01*
X184992857Y-83252300D02*
X184921428Y-83276109D01*
X184921428Y-83276109D02*
X184873809Y-83276109D01*
X184873809Y-83276109D02*
X184802381Y-83252300D01*
X184802381Y-83252300D02*
X184754762Y-83204680D01*
X184754762Y-83204680D02*
X184730952Y-83157061D01*
X184730952Y-83157061D02*
X184707143Y-83061823D01*
X184707143Y-83061823D02*
X184707143Y-82990395D01*
X184707143Y-82990395D02*
X184730952Y-82895157D01*
X184730952Y-82895157D02*
X184754762Y-82847538D01*
X184754762Y-82847538D02*
X184802381Y-82799919D01*
X184802381Y-82799919D02*
X184873809Y-82776109D01*
X184873809Y-82776109D02*
X184921428Y-82776109D01*
X184921428Y-82776109D02*
X184992857Y-82799919D01*
X184992857Y-82799919D02*
X185016666Y-82823728D01*
X185207143Y-82823728D02*
X185230952Y-82799919D01*
X185230952Y-82799919D02*
X185278571Y-82776109D01*
X185278571Y-82776109D02*
X185397619Y-82776109D01*
X185397619Y-82776109D02*
X185445238Y-82799919D01*
X185445238Y-82799919D02*
X185469047Y-82823728D01*
X185469047Y-82823728D02*
X185492857Y-82871347D01*
X185492857Y-82871347D02*
X185492857Y-82918966D01*
X185492857Y-82918966D02*
X185469047Y-82990395D01*
X185469047Y-82990395D02*
X185183333Y-83276109D01*
X185183333Y-83276109D02*
X185492857Y-83276109D01*
X162703571Y-93453490D02*
X162679762Y-93477300D01*
X162679762Y-93477300D02*
X162608333Y-93501109D01*
X162608333Y-93501109D02*
X162560714Y-93501109D01*
X162560714Y-93501109D02*
X162489286Y-93477300D01*
X162489286Y-93477300D02*
X162441667Y-93429680D01*
X162441667Y-93429680D02*
X162417857Y-93382061D01*
X162417857Y-93382061D02*
X162394048Y-93286823D01*
X162394048Y-93286823D02*
X162394048Y-93215395D01*
X162394048Y-93215395D02*
X162417857Y-93120157D01*
X162417857Y-93120157D02*
X162441667Y-93072538D01*
X162441667Y-93072538D02*
X162489286Y-93024919D01*
X162489286Y-93024919D02*
X162560714Y-93001109D01*
X162560714Y-93001109D02*
X162608333Y-93001109D01*
X162608333Y-93001109D02*
X162679762Y-93024919D01*
X162679762Y-93024919D02*
X162703571Y-93048728D01*
X163179762Y-93501109D02*
X162894048Y-93501109D01*
X163036905Y-93501109D02*
X163036905Y-93001109D01*
X163036905Y-93001109D02*
X162989286Y-93072538D01*
X162989286Y-93072538D02*
X162941667Y-93120157D01*
X162941667Y-93120157D02*
X162894048Y-93143966D01*
X163632142Y-93001109D02*
X163394047Y-93001109D01*
X163394047Y-93001109D02*
X163370238Y-93239204D01*
X163370238Y-93239204D02*
X163394047Y-93215395D01*
X163394047Y-93215395D02*
X163441666Y-93191585D01*
X163441666Y-93191585D02*
X163560714Y-93191585D01*
X163560714Y-93191585D02*
X163608333Y-93215395D01*
X163608333Y-93215395D02*
X163632142Y-93239204D01*
X163632142Y-93239204D02*
X163655952Y-93286823D01*
X163655952Y-93286823D02*
X163655952Y-93405871D01*
X163655952Y-93405871D02*
X163632142Y-93453490D01*
X163632142Y-93453490D02*
X163608333Y-93477300D01*
X163608333Y-93477300D02*
X163560714Y-93501109D01*
X163560714Y-93501109D02*
X163441666Y-93501109D01*
X163441666Y-93501109D02*
X163394047Y-93477300D01*
X163394047Y-93477300D02*
X163370238Y-93453490D01*
D10*
X169659524Y-101504819D02*
X170278571Y-101504819D01*
X170278571Y-101504819D02*
X169945238Y-101885771D01*
X169945238Y-101885771D02*
X170088095Y-101885771D01*
X170088095Y-101885771D02*
X170183333Y-101933390D01*
X170183333Y-101933390D02*
X170230952Y-101981009D01*
X170230952Y-101981009D02*
X170278571Y-102076247D01*
X170278571Y-102076247D02*
X170278571Y-102314342D01*
X170278571Y-102314342D02*
X170230952Y-102409580D01*
X170230952Y-102409580D02*
X170183333Y-102457200D01*
X170183333Y-102457200D02*
X170088095Y-102504819D01*
X170088095Y-102504819D02*
X169802381Y-102504819D01*
X169802381Y-102504819D02*
X169707143Y-102457200D01*
X169707143Y-102457200D02*
X169659524Y-102409580D01*
X170611905Y-101838152D02*
X170850000Y-102504819D01*
X170850000Y-102504819D02*
X171088095Y-101838152D01*
X171373810Y-101504819D02*
X171992857Y-101504819D01*
X171992857Y-101504819D02*
X171659524Y-101885771D01*
X171659524Y-101885771D02*
X171802381Y-101885771D01*
X171802381Y-101885771D02*
X171897619Y-101933390D01*
X171897619Y-101933390D02*
X171945238Y-101981009D01*
X171945238Y-101981009D02*
X171992857Y-102076247D01*
X171992857Y-102076247D02*
X171992857Y-102314342D01*
X171992857Y-102314342D02*
X171945238Y-102409580D01*
X171945238Y-102409580D02*
X171897619Y-102457200D01*
X171897619Y-102457200D02*
X171802381Y-102504819D01*
X171802381Y-102504819D02*
X171516667Y-102504819D01*
X171516667Y-102504819D02*
X171421429Y-102457200D01*
X171421429Y-102457200D02*
X171373810Y-102409580D01*
D11*
X181141666Y-83026109D02*
X180975000Y-82788014D01*
X180855952Y-83026109D02*
X180855952Y-82526109D01*
X180855952Y-82526109D02*
X181046428Y-82526109D01*
X181046428Y-82526109D02*
X181094047Y-82549919D01*
X181094047Y-82549919D02*
X181117857Y-82573728D01*
X181117857Y-82573728D02*
X181141666Y-82621347D01*
X181141666Y-82621347D02*
X181141666Y-82692776D01*
X181141666Y-82692776D02*
X181117857Y-82740395D01*
X181117857Y-82740395D02*
X181094047Y-82764204D01*
X181094047Y-82764204D02*
X181046428Y-82788014D01*
X181046428Y-82788014D02*
X180855952Y-82788014D01*
X181308333Y-82526109D02*
X181617857Y-82526109D01*
X181617857Y-82526109D02*
X181451190Y-82716585D01*
X181451190Y-82716585D02*
X181522619Y-82716585D01*
X181522619Y-82716585D02*
X181570238Y-82740395D01*
X181570238Y-82740395D02*
X181594047Y-82764204D01*
X181594047Y-82764204D02*
X181617857Y-82811823D01*
X181617857Y-82811823D02*
X181617857Y-82930871D01*
X181617857Y-82930871D02*
X181594047Y-82978490D01*
X181594047Y-82978490D02*
X181570238Y-83002300D01*
X181570238Y-83002300D02*
X181522619Y-83026109D01*
X181522619Y-83026109D02*
X181379762Y-83026109D01*
X181379762Y-83026109D02*
X181332143Y-83002300D01*
X181332143Y-83002300D02*
X181308333Y-82978490D01*
X176091666Y-94078490D02*
X176067857Y-94102300D01*
X176067857Y-94102300D02*
X175996428Y-94126109D01*
X175996428Y-94126109D02*
X175948809Y-94126109D01*
X175948809Y-94126109D02*
X175877381Y-94102300D01*
X175877381Y-94102300D02*
X175829762Y-94054680D01*
X175829762Y-94054680D02*
X175805952Y-94007061D01*
X175805952Y-94007061D02*
X175782143Y-93911823D01*
X175782143Y-93911823D02*
X175782143Y-93840395D01*
X175782143Y-93840395D02*
X175805952Y-93745157D01*
X175805952Y-93745157D02*
X175829762Y-93697538D01*
X175829762Y-93697538D02*
X175877381Y-93649919D01*
X175877381Y-93649919D02*
X175948809Y-93626109D01*
X175948809Y-93626109D02*
X175996428Y-93626109D01*
X175996428Y-93626109D02*
X176067857Y-93649919D01*
X176067857Y-93649919D02*
X176091666Y-93673728D01*
X176520238Y-93792776D02*
X176520238Y-94126109D01*
X176401190Y-93602300D02*
X176282143Y-93959442D01*
X176282143Y-93959442D02*
X176591666Y-93959442D01*
D10*
X180357142Y-101504819D02*
X179880952Y-101504819D01*
X179880952Y-101504819D02*
X179833333Y-101981009D01*
X179833333Y-101981009D02*
X179880952Y-101933390D01*
X179880952Y-101933390D02*
X179976190Y-101885771D01*
X179976190Y-101885771D02*
X180214285Y-101885771D01*
X180214285Y-101885771D02*
X180309523Y-101933390D01*
X180309523Y-101933390D02*
X180357142Y-101981009D01*
X180357142Y-101981009D02*
X180404761Y-102076247D01*
X180404761Y-102076247D02*
X180404761Y-102314342D01*
X180404761Y-102314342D02*
X180357142Y-102409580D01*
X180357142Y-102409580D02*
X180309523Y-102457200D01*
X180309523Y-102457200D02*
X180214285Y-102504819D01*
X180214285Y-102504819D02*
X179976190Y-102504819D01*
X179976190Y-102504819D02*
X179880952Y-102457200D01*
X179880952Y-102457200D02*
X179833333Y-102409580D01*
X180738095Y-101838152D02*
X180976190Y-102504819D01*
X180976190Y-102504819D02*
X181214285Y-101838152D01*
D11*
X192341666Y-89751109D02*
X192175000Y-89513014D01*
X192055952Y-89751109D02*
X192055952Y-89251109D01*
X192055952Y-89251109D02*
X192246428Y-89251109D01*
X192246428Y-89251109D02*
X192294047Y-89274919D01*
X192294047Y-89274919D02*
X192317857Y-89298728D01*
X192317857Y-89298728D02*
X192341666Y-89346347D01*
X192341666Y-89346347D02*
X192341666Y-89417776D01*
X192341666Y-89417776D02*
X192317857Y-89465395D01*
X192317857Y-89465395D02*
X192294047Y-89489204D01*
X192294047Y-89489204D02*
X192246428Y-89513014D01*
X192246428Y-89513014D02*
X192055952Y-89513014D01*
X192532143Y-89298728D02*
X192555952Y-89274919D01*
X192555952Y-89274919D02*
X192603571Y-89251109D01*
X192603571Y-89251109D02*
X192722619Y-89251109D01*
X192722619Y-89251109D02*
X192770238Y-89274919D01*
X192770238Y-89274919D02*
X192794047Y-89298728D01*
X192794047Y-89298728D02*
X192817857Y-89346347D01*
X192817857Y-89346347D02*
X192817857Y-89393966D01*
X192817857Y-89393966D02*
X192794047Y-89465395D01*
X192794047Y-89465395D02*
X192508333Y-89751109D01*
X192508333Y-89751109D02*
X192817857Y-89751109D01*
X172328571Y-93478490D02*
X172304762Y-93502300D01*
X172304762Y-93502300D02*
X172233333Y-93526109D01*
X172233333Y-93526109D02*
X172185714Y-93526109D01*
X172185714Y-93526109D02*
X172114286Y-93502300D01*
X172114286Y-93502300D02*
X172066667Y-93454680D01*
X172066667Y-93454680D02*
X172042857Y-93407061D01*
X172042857Y-93407061D02*
X172019048Y-93311823D01*
X172019048Y-93311823D02*
X172019048Y-93240395D01*
X172019048Y-93240395D02*
X172042857Y-93145157D01*
X172042857Y-93145157D02*
X172066667Y-93097538D01*
X172066667Y-93097538D02*
X172114286Y-93049919D01*
X172114286Y-93049919D02*
X172185714Y-93026109D01*
X172185714Y-93026109D02*
X172233333Y-93026109D01*
X172233333Y-93026109D02*
X172304762Y-93049919D01*
X172304762Y-93049919D02*
X172328571Y-93073728D01*
X172804762Y-93526109D02*
X172519048Y-93526109D01*
X172661905Y-93526109D02*
X172661905Y-93026109D01*
X172661905Y-93026109D02*
X172614286Y-93097538D01*
X172614286Y-93097538D02*
X172566667Y-93145157D01*
X172566667Y-93145157D02*
X172519048Y-93168966D01*
X173114285Y-93026109D02*
X173161904Y-93026109D01*
X173161904Y-93026109D02*
X173209523Y-93049919D01*
X173209523Y-93049919D02*
X173233333Y-93073728D01*
X173233333Y-93073728D02*
X173257142Y-93121347D01*
X173257142Y-93121347D02*
X173280952Y-93216585D01*
X173280952Y-93216585D02*
X173280952Y-93335633D01*
X173280952Y-93335633D02*
X173257142Y-93430871D01*
X173257142Y-93430871D02*
X173233333Y-93478490D01*
X173233333Y-93478490D02*
X173209523Y-93502300D01*
X173209523Y-93502300D02*
X173161904Y-93526109D01*
X173161904Y-93526109D02*
X173114285Y-93526109D01*
X173114285Y-93526109D02*
X173066666Y-93502300D01*
X173066666Y-93502300D02*
X173042857Y-93478490D01*
X173042857Y-93478490D02*
X173019047Y-93430871D01*
X173019047Y-93430871D02*
X172995238Y-93335633D01*
X172995238Y-93335633D02*
X172995238Y-93216585D01*
X172995238Y-93216585D02*
X173019047Y-93121347D01*
X173019047Y-93121347D02*
X173042857Y-93073728D01*
X173042857Y-93073728D02*
X173066666Y-93049919D01*
X173066666Y-93049919D02*
X173114285Y-93026109D01*
X152803571Y-89703490D02*
X152779762Y-89727300D01*
X152779762Y-89727300D02*
X152708333Y-89751109D01*
X152708333Y-89751109D02*
X152660714Y-89751109D01*
X152660714Y-89751109D02*
X152589286Y-89727300D01*
X152589286Y-89727300D02*
X152541667Y-89679680D01*
X152541667Y-89679680D02*
X152517857Y-89632061D01*
X152517857Y-89632061D02*
X152494048Y-89536823D01*
X152494048Y-89536823D02*
X152494048Y-89465395D01*
X152494048Y-89465395D02*
X152517857Y-89370157D01*
X152517857Y-89370157D02*
X152541667Y-89322538D01*
X152541667Y-89322538D02*
X152589286Y-89274919D01*
X152589286Y-89274919D02*
X152660714Y-89251109D01*
X152660714Y-89251109D02*
X152708333Y-89251109D01*
X152708333Y-89251109D02*
X152779762Y-89274919D01*
X152779762Y-89274919D02*
X152803571Y-89298728D01*
X153279762Y-89751109D02*
X152994048Y-89751109D01*
X153136905Y-89751109D02*
X153136905Y-89251109D01*
X153136905Y-89251109D02*
X153089286Y-89322538D01*
X153089286Y-89322538D02*
X153041667Y-89370157D01*
X153041667Y-89370157D02*
X152994048Y-89393966D01*
X153446428Y-89251109D02*
X153779761Y-89251109D01*
X153779761Y-89251109D02*
X153565476Y-89751109D01*
X166366666Y-92128490D02*
X166342857Y-92152300D01*
X166342857Y-92152300D02*
X166271428Y-92176109D01*
X166271428Y-92176109D02*
X166223809Y-92176109D01*
X166223809Y-92176109D02*
X166152381Y-92152300D01*
X166152381Y-92152300D02*
X166104762Y-92104680D01*
X166104762Y-92104680D02*
X166080952Y-92057061D01*
X166080952Y-92057061D02*
X166057143Y-91961823D01*
X166057143Y-91961823D02*
X166057143Y-91890395D01*
X166057143Y-91890395D02*
X166080952Y-91795157D01*
X166080952Y-91795157D02*
X166104762Y-91747538D01*
X166104762Y-91747538D02*
X166152381Y-91699919D01*
X166152381Y-91699919D02*
X166223809Y-91676109D01*
X166223809Y-91676109D02*
X166271428Y-91676109D01*
X166271428Y-91676109D02*
X166342857Y-91699919D01*
X166342857Y-91699919D02*
X166366666Y-91723728D01*
X166652381Y-91890395D02*
X166604762Y-91866585D01*
X166604762Y-91866585D02*
X166580952Y-91842776D01*
X166580952Y-91842776D02*
X166557143Y-91795157D01*
X166557143Y-91795157D02*
X166557143Y-91771347D01*
X166557143Y-91771347D02*
X166580952Y-91723728D01*
X166580952Y-91723728D02*
X166604762Y-91699919D01*
X166604762Y-91699919D02*
X166652381Y-91676109D01*
X166652381Y-91676109D02*
X166747619Y-91676109D01*
X166747619Y-91676109D02*
X166795238Y-91699919D01*
X166795238Y-91699919D02*
X166819047Y-91723728D01*
X166819047Y-91723728D02*
X166842857Y-91771347D01*
X166842857Y-91771347D02*
X166842857Y-91795157D01*
X166842857Y-91795157D02*
X166819047Y-91842776D01*
X166819047Y-91842776D02*
X166795238Y-91866585D01*
X166795238Y-91866585D02*
X166747619Y-91890395D01*
X166747619Y-91890395D02*
X166652381Y-91890395D01*
X166652381Y-91890395D02*
X166604762Y-91914204D01*
X166604762Y-91914204D02*
X166580952Y-91938014D01*
X166580952Y-91938014D02*
X166557143Y-91985633D01*
X166557143Y-91985633D02*
X166557143Y-92080871D01*
X166557143Y-92080871D02*
X166580952Y-92128490D01*
X166580952Y-92128490D02*
X166604762Y-92152300D01*
X166604762Y-92152300D02*
X166652381Y-92176109D01*
X166652381Y-92176109D02*
X166747619Y-92176109D01*
X166747619Y-92176109D02*
X166795238Y-92152300D01*
X166795238Y-92152300D02*
X166819047Y-92128490D01*
X166819047Y-92128490D02*
X166842857Y-92080871D01*
X166842857Y-92080871D02*
X166842857Y-91985633D01*
X166842857Y-91985633D02*
X166819047Y-91938014D01*
X166819047Y-91938014D02*
X166795238Y-91914204D01*
X166795238Y-91914204D02*
X166747619Y-91890395D01*
X179691666Y-83026109D02*
X179525000Y-82788014D01*
X179405952Y-83026109D02*
X179405952Y-82526109D01*
X179405952Y-82526109D02*
X179596428Y-82526109D01*
X179596428Y-82526109D02*
X179644047Y-82549919D01*
X179644047Y-82549919D02*
X179667857Y-82573728D01*
X179667857Y-82573728D02*
X179691666Y-82621347D01*
X179691666Y-82621347D02*
X179691666Y-82692776D01*
X179691666Y-82692776D02*
X179667857Y-82740395D01*
X179667857Y-82740395D02*
X179644047Y-82764204D01*
X179644047Y-82764204D02*
X179596428Y-82788014D01*
X179596428Y-82788014D02*
X179405952Y-82788014D01*
X180120238Y-82692776D02*
X180120238Y-83026109D01*
X180001190Y-82502300D02*
X179882143Y-82859442D01*
X179882143Y-82859442D02*
X180191666Y-82859442D01*
X182191666Y-93478490D02*
X182167857Y-93502300D01*
X182167857Y-93502300D02*
X182096428Y-93526109D01*
X182096428Y-93526109D02*
X182048809Y-93526109D01*
X182048809Y-93526109D02*
X181977381Y-93502300D01*
X181977381Y-93502300D02*
X181929762Y-93454680D01*
X181929762Y-93454680D02*
X181905952Y-93407061D01*
X181905952Y-93407061D02*
X181882143Y-93311823D01*
X181882143Y-93311823D02*
X181882143Y-93240395D01*
X181882143Y-93240395D02*
X181905952Y-93145157D01*
X181905952Y-93145157D02*
X181929762Y-93097538D01*
X181929762Y-93097538D02*
X181977381Y-93049919D01*
X181977381Y-93049919D02*
X182048809Y-93026109D01*
X182048809Y-93026109D02*
X182096428Y-93026109D01*
X182096428Y-93026109D02*
X182167857Y-93049919D01*
X182167857Y-93049919D02*
X182191666Y-93073728D01*
X182644047Y-93026109D02*
X182405952Y-93026109D01*
X182405952Y-93026109D02*
X182382143Y-93264204D01*
X182382143Y-93264204D02*
X182405952Y-93240395D01*
X182405952Y-93240395D02*
X182453571Y-93216585D01*
X182453571Y-93216585D02*
X182572619Y-93216585D01*
X182572619Y-93216585D02*
X182620238Y-93240395D01*
X182620238Y-93240395D02*
X182644047Y-93264204D01*
X182644047Y-93264204D02*
X182667857Y-93311823D01*
X182667857Y-93311823D02*
X182667857Y-93430871D01*
X182667857Y-93430871D02*
X182644047Y-93478490D01*
X182644047Y-93478490D02*
X182620238Y-93502300D01*
X182620238Y-93502300D02*
X182572619Y-93526109D01*
X182572619Y-93526109D02*
X182453571Y-93526109D01*
X182453571Y-93526109D02*
X182405952Y-93502300D01*
X182405952Y-93502300D02*
X182382143Y-93478490D01*
X182540476Y-81989895D02*
X182540476Y-82637514D01*
X182540476Y-82637514D02*
X182578571Y-82713704D01*
X182578571Y-82713704D02*
X182616666Y-82751800D01*
X182616666Y-82751800D02*
X182692857Y-82789895D01*
X182692857Y-82789895D02*
X182845238Y-82789895D01*
X182845238Y-82789895D02*
X182921428Y-82751800D01*
X182921428Y-82751800D02*
X182959523Y-82713704D01*
X182959523Y-82713704D02*
X182997619Y-82637514D01*
X182997619Y-82637514D02*
X182997619Y-81989895D01*
X183797618Y-82789895D02*
X183340475Y-82789895D01*
X183569047Y-82789895D02*
X183569047Y-81989895D01*
X183569047Y-81989895D02*
X183492856Y-82104180D01*
X183492856Y-82104180D02*
X183416666Y-82180371D01*
X183416666Y-82180371D02*
X183340475Y-82218466D01*
D12*
%TO.C,G\u002A\u002A\u002A*%
G36*
X144104564Y-90854564D02*
G01*
X144104564Y-91240974D01*
X144001521Y-91240974D01*
X143898479Y-91240974D01*
X143898479Y-90854564D01*
X143898479Y-90468154D01*
X144001521Y-90468154D01*
X144104564Y-90468154D01*
X144104564Y-90854564D01*
G37*
G36*
X143436174Y-94852080D02*
G01*
X143440252Y-94852159D01*
X143628468Y-94857741D01*
X143772907Y-94867740D01*
X143881270Y-94884481D01*
X143961257Y-94910292D01*
X144020569Y-94947498D01*
X144066909Y-94998426D01*
X144100345Y-95051550D01*
X144123216Y-95097456D01*
X144138882Y-95146519D01*
X144148666Y-95209425D01*
X144153893Y-95296863D01*
X144155887Y-95419520D01*
X144156085Y-95501429D01*
X144156085Y-95852130D01*
X144055606Y-95852130D01*
X143955126Y-95852130D01*
X143946123Y-95620842D01*
X143935557Y-95478486D01*
X143911706Y-95378579D01*
X143866891Y-95312357D01*
X143793435Y-95271054D01*
X143683661Y-95245905D01*
X143609277Y-95236256D01*
X143472539Y-95227342D01*
X143326798Y-95228490D01*
X143185141Y-95238513D01*
X143060657Y-95256226D01*
X142966435Y-95280442D01*
X142929476Y-95297859D01*
X142903140Y-95317052D01*
X142885655Y-95340098D01*
X142875507Y-95376653D01*
X142871182Y-95436373D01*
X142871167Y-95528917D01*
X142873709Y-95653593D01*
X142880933Y-95968053D01*
X144033722Y-95974758D01*
X145186511Y-95981464D01*
X145186511Y-96161523D01*
X145186511Y-96341582D01*
X143898479Y-96341582D01*
X142610446Y-96341582D01*
X142610446Y-95763180D01*
X142611899Y-95531966D01*
X142616286Y-95351274D01*
X142623652Y-95220186D01*
X142634038Y-95137786D01*
X142641123Y-95112724D01*
X142686006Y-95027006D01*
X142743004Y-94960965D01*
X142818588Y-94912492D01*
X142919226Y-94879476D01*
X143051390Y-94859809D01*
X143221549Y-94851380D01*
X143436174Y-94852080D01*
G37*
G36*
X143436174Y-88721045D02*
G01*
X143440252Y-88721124D01*
X143628468Y-88726706D01*
X143772907Y-88736705D01*
X143881270Y-88753447D01*
X143961257Y-88779258D01*
X144020569Y-88816464D01*
X144066909Y-88867391D01*
X144100345Y-88920516D01*
X144123216Y-88966422D01*
X144138882Y-89015484D01*
X144148666Y-89078390D01*
X144153893Y-89165828D01*
X144155887Y-89288486D01*
X144156085Y-89370394D01*
X144156085Y-89721096D01*
X144055606Y-89721096D01*
X143955126Y-89721096D01*
X143946123Y-89489808D01*
X143935557Y-89347451D01*
X143911706Y-89247545D01*
X143866891Y-89181323D01*
X143793435Y-89140020D01*
X143683661Y-89114870D01*
X143609277Y-89105222D01*
X143472539Y-89096308D01*
X143326798Y-89097455D01*
X143185141Y-89107479D01*
X143060657Y-89125191D01*
X142966435Y-89149408D01*
X142929476Y-89166824D01*
X142903140Y-89186018D01*
X142885655Y-89209063D01*
X142875507Y-89245618D01*
X142871182Y-89305339D01*
X142871167Y-89397882D01*
X142873709Y-89522558D01*
X142880933Y-89837019D01*
X144033722Y-89843724D01*
X145186511Y-89850429D01*
X145186511Y-90030489D01*
X145186511Y-90210548D01*
X143898479Y-90210548D01*
X142610446Y-90210548D01*
X142610446Y-89632145D01*
X142611899Y-89400931D01*
X142616286Y-89220239D01*
X142623652Y-89089152D01*
X142634038Y-89006752D01*
X142641123Y-88981689D01*
X142686006Y-88895971D01*
X142743004Y-88829931D01*
X142818588Y-88781457D01*
X142919226Y-88748442D01*
X143051390Y-88728774D01*
X143221549Y-88720345D01*
X143436174Y-88721045D01*
G37*
G36*
X143698834Y-85161712D02*
G01*
X144787221Y-85161964D01*
X144920020Y-85223797D01*
X145022574Y-85284028D01*
X145095037Y-85361138D01*
X145119665Y-85399693D01*
X145142955Y-85441057D01*
X145160077Y-85479743D01*
X145171964Y-85524242D01*
X145179549Y-85583046D01*
X145183765Y-85664647D01*
X145185546Y-85777535D01*
X145185823Y-85930202D01*
X145185728Y-86000945D01*
X145183839Y-86191769D01*
X145178995Y-86345715D01*
X145171428Y-86458517D01*
X145161369Y-86525905D01*
X145156449Y-86539655D01*
X145058700Y-86664684D01*
X144923450Y-86754511D01*
X144907448Y-86761726D01*
X144877120Y-86773582D01*
X144842587Y-86783337D01*
X144798803Y-86791196D01*
X144740721Y-86797360D01*
X144663293Y-86802033D01*
X144561472Y-86805417D01*
X144430211Y-86807715D01*
X144264462Y-86809131D01*
X144059179Y-86809867D01*
X143809314Y-86810127D01*
X143703138Y-86810142D01*
X142610446Y-86810142D01*
X142610446Y-86631836D01*
X142610446Y-86453529D01*
X143660193Y-86444018D01*
X143973750Y-86440439D01*
X144235873Y-86435850D01*
X144446638Y-86430248D01*
X144606124Y-86423630D01*
X144714406Y-86415993D01*
X144771563Y-86407335D01*
X144776783Y-86405516D01*
X144838686Y-86375065D01*
X144881112Y-86340357D01*
X144907703Y-86291569D01*
X144922099Y-86218879D01*
X144927942Y-86112464D01*
X144928905Y-85995148D01*
X144926783Y-85872639D01*
X144921028Y-85765941D01*
X144912554Y-85687497D01*
X144903688Y-85651929D01*
X144886470Y-85625347D01*
X144862739Y-85603191D01*
X144827903Y-85585003D01*
X144777368Y-85570327D01*
X144706542Y-85558704D01*
X144610832Y-85549677D01*
X144485645Y-85542788D01*
X144326389Y-85537580D01*
X144128470Y-85533596D01*
X143887296Y-85530377D01*
X143660193Y-85528046D01*
X142610446Y-85518074D01*
X142610446Y-85339767D01*
X142610446Y-85161461D01*
X143698834Y-85161712D01*
G37*
G36*
X143496301Y-91505300D02*
G01*
X143654232Y-91524503D01*
X143772228Y-91561534D01*
X143855618Y-91620447D01*
X143909732Y-91705295D01*
X143939900Y-91820131D01*
X143951452Y-91969007D01*
X143951977Y-92000913D01*
X143957000Y-92176659D01*
X143972435Y-92310971D01*
X144004395Y-92409501D01*
X144058995Y-92477895D01*
X144142349Y-92521803D01*
X144260572Y-92546875D01*
X144419779Y-92558758D01*
X144559589Y-92562265D01*
X144916024Y-92567647D01*
X144923049Y-92080130D01*
X144927263Y-91892483D01*
X144933813Y-91742467D01*
X144942428Y-91634067D01*
X144952838Y-91571267D01*
X144958404Y-91558476D01*
X145001042Y-91536262D01*
X145070366Y-91524776D01*
X145086623Y-91524341D01*
X145186511Y-91524341D01*
X145186511Y-92232759D01*
X145186511Y-92941177D01*
X144662262Y-92941177D01*
X144459491Y-92940179D01*
X144300820Y-92936383D01*
X144178850Y-92928582D01*
X144086185Y-92915571D01*
X144015427Y-92896145D01*
X143959178Y-92869099D01*
X143910042Y-92833227D01*
X143889822Y-92815309D01*
X143837630Y-92762840D01*
X143800924Y-92710623D01*
X143776180Y-92647479D01*
X143759881Y-92562228D01*
X143748504Y-92443693D01*
X143742273Y-92346774D01*
X143732867Y-92223006D01*
X143720635Y-92114164D01*
X143707250Y-92032970D01*
X143695923Y-91994628D01*
X143637641Y-91938869D01*
X143532241Y-91901784D01*
X143379321Y-91883259D01*
X143284154Y-91880923D01*
X143119422Y-91890557D01*
X142995175Y-91918778D01*
X142914402Y-91964565D01*
X142881664Y-92018536D01*
X142876216Y-92065102D01*
X142870836Y-92152099D01*
X142866041Y-92268439D01*
X142862351Y-92403033D01*
X142861427Y-92451724D01*
X142855172Y-92825254D01*
X142732809Y-92833105D01*
X142610446Y-92840957D01*
X142610870Y-92330773D01*
X142611339Y-92154901D01*
X142612927Y-92022432D01*
X142616403Y-91925247D01*
X142622537Y-91855228D01*
X142632099Y-91804257D01*
X142645859Y-91764216D01*
X142664585Y-91726987D01*
X142668831Y-91719451D01*
X142755118Y-91617063D01*
X142842292Y-91559173D01*
X142896168Y-91534353D01*
X142950525Y-91517557D01*
X143016997Y-91507256D01*
X143107222Y-91501919D01*
X143232835Y-91500014D01*
X143293103Y-91499872D01*
X143496301Y-91505300D01*
G37*
G36*
X144605010Y-93257100D02*
G01*
X144775333Y-93279165D01*
X144908765Y-93319021D01*
X145011821Y-93379188D01*
X145091015Y-93462185D01*
X145137731Y-93539086D01*
X145154854Y-93577948D01*
X145167491Y-93623179D01*
X145176300Y-93682874D01*
X145181941Y-93765128D01*
X145185073Y-93878034D01*
X145186355Y-94029689D01*
X145186511Y-94138021D01*
X145186511Y-94641380D01*
X145070588Y-94641380D01*
X145000336Y-94640089D01*
X144956787Y-94636828D01*
X144950431Y-94634939D01*
X144948189Y-94608389D01*
X144944642Y-94538895D01*
X144940164Y-94435008D01*
X144935128Y-94305276D01*
X144931111Y-94193256D01*
X144916024Y-93758012D01*
X144844475Y-93704686D01*
X144799498Y-93678262D01*
X144741159Y-93660573D01*
X144657206Y-93649229D01*
X144535383Y-93641840D01*
X144518724Y-93641149D01*
X144344752Y-93639817D01*
X144215321Y-93652649D01*
X144125062Y-93681020D01*
X144068606Y-93726307D01*
X144048945Y-93761602D01*
X144036594Y-93815747D01*
X144024694Y-93906866D01*
X144014899Y-94020429D01*
X144010399Y-94100406D01*
X144003273Y-94246468D01*
X143995208Y-94351035D01*
X143983753Y-94424108D01*
X143966455Y-94475691D01*
X143940864Y-94515787D01*
X143904527Y-94554399D01*
X143897458Y-94561198D01*
X143827378Y-94615462D01*
X143742977Y-94653638D01*
X143635544Y-94677520D01*
X143496365Y-94688900D01*
X143316727Y-94689569D01*
X143277922Y-94688650D01*
X143105553Y-94680515D01*
X142974653Y-94664482D01*
X142875369Y-94637208D01*
X142797850Y-94595347D01*
X142732244Y-94535556D01*
X142695451Y-94490930D01*
X142669963Y-94456464D01*
X142651191Y-94423941D01*
X142637948Y-94385001D01*
X142629047Y-94331286D01*
X142623301Y-94254436D01*
X142619522Y-94146093D01*
X142616524Y-93997898D01*
X142615293Y-93926522D01*
X142607260Y-93456390D01*
X142721772Y-93456390D01*
X142776386Y-93458330D01*
X142815287Y-93469130D01*
X142841151Y-93496263D01*
X142856654Y-93547199D01*
X142864472Y-93629409D01*
X142867280Y-93750365D01*
X142867701Y-93863813D01*
X142870028Y-93985503D01*
X142876066Y-94091461D01*
X142884851Y-94169075D01*
X142893616Y-94203079D01*
X142946979Y-94252319D01*
X143042801Y-94288151D01*
X143173202Y-94308156D01*
X143246307Y-94311433D01*
X143400389Y-94306088D01*
X143508953Y-94284484D01*
X143575674Y-94245672D01*
X143593189Y-94222037D01*
X143605982Y-94175152D01*
X143618436Y-94089542D01*
X143629016Y-93977991D01*
X143635478Y-93870264D01*
X143643732Y-93742926D01*
X143655987Y-93626893D01*
X143670468Y-93536402D01*
X143682824Y-93491080D01*
X143734498Y-93406447D01*
X143813249Y-93341965D01*
X143924097Y-93295928D01*
X144072061Y-93266629D01*
X144262162Y-93252364D01*
X144391283Y-93250305D01*
X144605010Y-93257100D01*
G37*
G36*
X144605010Y-87126065D02*
G01*
X144775333Y-87148131D01*
X144908765Y-87187987D01*
X145011821Y-87248153D01*
X145091015Y-87331151D01*
X145137731Y-87408051D01*
X145154854Y-87446914D01*
X145167491Y-87492145D01*
X145176300Y-87551840D01*
X145181941Y-87634093D01*
X145185073Y-87747000D01*
X145186355Y-87898654D01*
X145186511Y-88006986D01*
X145186511Y-88510345D01*
X145070588Y-88510345D01*
X145000336Y-88509055D01*
X144956787Y-88505793D01*
X144950431Y-88503905D01*
X144948189Y-88477355D01*
X144944642Y-88407861D01*
X144940164Y-88303973D01*
X144935128Y-88174241D01*
X144931111Y-88062221D01*
X144916024Y-87626978D01*
X144844475Y-87573651D01*
X144799498Y-87547228D01*
X144741159Y-87529539D01*
X144657206Y-87518195D01*
X144535383Y-87510805D01*
X144518724Y-87510114D01*
X144344752Y-87508783D01*
X144215321Y-87521614D01*
X144125062Y-87549985D01*
X144068606Y-87595272D01*
X144048945Y-87630568D01*
X144036594Y-87684712D01*
X144024694Y-87775832D01*
X144014899Y-87889394D01*
X144010399Y-87969371D01*
X144003273Y-88115434D01*
X143995208Y-88220000D01*
X143983753Y-88293074D01*
X143966455Y-88344657D01*
X143940864Y-88384753D01*
X143904527Y-88423364D01*
X143897458Y-88430163D01*
X143827378Y-88484427D01*
X143742977Y-88522604D01*
X143635544Y-88546486D01*
X143496365Y-88557865D01*
X143316727Y-88558534D01*
X143277922Y-88557615D01*
X143105553Y-88549480D01*
X142974653Y-88533448D01*
X142875369Y-88506173D01*
X142797850Y-88464313D01*
X142732244Y-88404522D01*
X142695451Y-88359895D01*
X142669963Y-88325429D01*
X142651191Y-88292906D01*
X142637948Y-88253967D01*
X142629047Y-88200251D01*
X142623301Y-88123402D01*
X142619522Y-88015059D01*
X142616524Y-87866863D01*
X142615293Y-87795487D01*
X142607260Y-87325355D01*
X142721772Y-87325355D01*
X142776386Y-87327295D01*
X142815287Y-87338096D01*
X142841151Y-87365228D01*
X142856654Y-87416164D01*
X142864472Y-87498374D01*
X142867280Y-87619330D01*
X142867701Y-87732779D01*
X142870028Y-87854469D01*
X142876066Y-87960427D01*
X142884851Y-88038041D01*
X142893616Y-88072045D01*
X142946979Y-88121285D01*
X143042801Y-88157117D01*
X143173202Y-88177121D01*
X143246307Y-88180398D01*
X143400389Y-88175054D01*
X143508953Y-88153449D01*
X143575674Y-88114638D01*
X143593189Y-88091002D01*
X143605982Y-88044117D01*
X143618436Y-87958508D01*
X143629016Y-87846956D01*
X143635478Y-87739230D01*
X143643732Y-87611891D01*
X143655987Y-87495859D01*
X143670468Y-87405368D01*
X143682824Y-87360045D01*
X143734498Y-87275412D01*
X143813249Y-87210930D01*
X143924097Y-87164893D01*
X144072061Y-87135595D01*
X144262162Y-87121329D01*
X144391283Y-87119270D01*
X144605010Y-87126065D01*
G37*
D13*
%TO.C,R1*%
X192578641Y-90995000D02*
X192271359Y-90995000D01*
X192578641Y-91755000D02*
X192271359Y-91755000D01*
%TO.C,C12*%
X165140000Y-84838748D02*
X165140000Y-85361252D01*
X166610000Y-84838748D02*
X166610000Y-85361252D01*
%TO.C,R8*%
X161527500Y-84862258D02*
X161527500Y-84387742D01*
X162572500Y-84862258D02*
X162572500Y-84387742D01*
D10*
%TO.C,U2*%
X172500000Y-84800001D02*
X172500000Y-83499999D01*
X174600000Y-84800001D02*
X174600000Y-83499999D01*
D14*
X173175002Y-85775001D02*
G75*
G02*
X172925000Y-85775001I-125001J0D01*
G01*
X172925000Y-85775001D02*
G75*
G02*
X173175002Y-85775001I125001J0D01*
G01*
D13*
%TO.C,L3*%
X159340000Y-86115000D02*
X159340000Y-86565000D01*
X159340000Y-90935000D02*
X159340000Y-90485000D01*
X164160000Y-86115000D02*
X159340000Y-86115000D01*
X164160000Y-86115000D02*
X164160000Y-86565000D01*
X164160000Y-90935000D02*
X159340000Y-90935000D01*
X164160000Y-90935000D02*
X164160000Y-90485000D01*
%TO.C,C6*%
X176740000Y-84838748D02*
X176740000Y-85361252D01*
X178210000Y-84838748D02*
X178210000Y-85361252D01*
%TO.C,R6*%
X171152500Y-84862258D02*
X171152500Y-84387742D01*
X172197500Y-84862258D02*
X172197500Y-84387742D01*
%TO.C,C1*%
X186340000Y-84838748D02*
X186340000Y-85361252D01*
X187810000Y-84838748D02*
X187810000Y-85361252D01*
%TO.C,C16*%
X153663748Y-83390000D02*
X154186252Y-83390000D01*
X153663748Y-84860000D02*
X154186252Y-84860000D01*
D15*
%TO.C,U4*%
X151105000Y-87575000D02*
X151105000Y-85575000D01*
X153345000Y-87575000D02*
X153345000Y-85575000D01*
D16*
X151675000Y-88350000D02*
G75*
G02*
X151475000Y-88350000I-100000J0D01*
G01*
X151475000Y-88350000D02*
G75*
G02*
X151675000Y-88350000I100000J0D01*
G01*
D11*
%TO.C,J1*%
X193977000Y-91375000D02*
X193977000Y-91375000D01*
X194077000Y-91375000D02*
X194077000Y-91375000D01*
D16*
X196577000Y-95345000D02*
X197977000Y-95345000D01*
X197977000Y-86405000D02*
X196577000Y-86405000D01*
D11*
X193977000Y-91375000D02*
G75*
G02*
X194077000Y-91375000I50000J0D01*
G01*
X194078000Y-91375000D02*
G75*
G02*
X193977000Y-91375000I-50500J0D01*
G01*
D10*
%TO.C,U3*%
X162875001Y-84815002D02*
X162875001Y-83515000D01*
X164975001Y-84815002D02*
X164975001Y-83515000D01*
D14*
X163550003Y-85790002D02*
G75*
G02*
X163300001Y-85790002I-125001J0D01*
G01*
X163300001Y-85790002D02*
G75*
G02*
X163550003Y-85790002I125001J0D01*
G01*
D13*
%TO.C,R5*%
X169677500Y-84862258D02*
X169677500Y-84387742D01*
X170722500Y-84862258D02*
X170722500Y-84387742D01*
%TO.C,C3*%
X179161252Y-91190000D02*
X178638748Y-91190000D01*
X179161252Y-92660000D02*
X178638748Y-92660000D01*
%TO.C,C14*%
X159886252Y-93165000D02*
X159363748Y-93165000D01*
X159886252Y-94635000D02*
X159363748Y-94635000D01*
%TO.C,C7*%
X174765000Y-84838748D02*
X174765000Y-85361252D01*
X176235000Y-84838748D02*
X176235000Y-85361252D01*
%TO.C,GND*%
X188700000Y-98100000D02*
X191600000Y-98100000D01*
X188700000Y-101000000D02*
X188700000Y-98100000D01*
X191600000Y-98100000D02*
X191600000Y-101000000D01*
X191600000Y-101000000D02*
X188700000Y-101000000D01*
%TO.C,R7*%
X160052500Y-84862258D02*
X160052500Y-84387742D01*
X161097500Y-84862258D02*
X161097500Y-84387742D01*
%TO.C,C9*%
X169511252Y-93165000D02*
X168988748Y-93165000D01*
X169511252Y-94635000D02*
X168988748Y-94635000D01*
%TO.C,C18*%
X150886252Y-90765000D02*
X150363748Y-90765000D01*
X150886252Y-92235000D02*
X150363748Y-92235000D01*
%TO.C,C19*%
X150786252Y-83390000D02*
X150263748Y-83390000D01*
X150786252Y-84860000D02*
X150263748Y-84860000D01*
%TO.C,C13*%
X159886252Y-91190000D02*
X159363748Y-91190000D01*
X159886252Y-92660000D02*
X159363748Y-92660000D01*
%TO.C,1v8*%
X153025000Y-99525000D02*
G75*
G02*
X150125000Y-99525000I-1450000J0D01*
G01*
X150125000Y-99525000D02*
G75*
G02*
X153025000Y-99525000I1450000J0D01*
G01*
%TO.C,1v*%
X162675000Y-99525000D02*
G75*
G02*
X159775000Y-99525000I-1450000J0D01*
G01*
X159775000Y-99525000D02*
G75*
G02*
X162675000Y-99525000I1450000J0D01*
G01*
%TO.C,C11*%
X167115000Y-84838748D02*
X167115000Y-85361252D01*
X168585000Y-84838748D02*
X168585000Y-85361252D01*
%TO.C,L1*%
X178605001Y-86115001D02*
X178605001Y-86565001D01*
X178605001Y-90935001D02*
X178605001Y-90485001D01*
X183425001Y-86115001D02*
X178605001Y-86115001D01*
X183425001Y-86115001D02*
X183425001Y-86565001D01*
X183425001Y-90935001D02*
X178605001Y-90935001D01*
X183425001Y-90935001D02*
X183425001Y-90485001D01*
%TO.C,L2*%
X168965000Y-86115000D02*
X168965000Y-86565000D01*
X168965000Y-90935000D02*
X168965000Y-90485000D01*
X173785000Y-86115000D02*
X168965000Y-86115000D01*
X173785000Y-86115000D02*
X173785000Y-86565000D01*
X173785000Y-90935000D02*
X168965000Y-90935000D01*
X173785000Y-90935000D02*
X173785000Y-90485000D01*
%TO.C,C2*%
X184340000Y-84838748D02*
X184340000Y-85361252D01*
X185810000Y-84838748D02*
X185810000Y-85361252D01*
%TO.C,C15*%
X162763748Y-91190000D02*
X163286252Y-91190000D01*
X162763748Y-92660000D02*
X163286252Y-92660000D01*
%TO.C,3v3*%
X172300000Y-99550000D02*
G75*
G02*
X169400000Y-99550000I-1450000J0D01*
G01*
X169400000Y-99550000D02*
G75*
G02*
X172300000Y-99550000I1450000J0D01*
G01*
%TO.C,R3*%
X180727500Y-84862258D02*
X180727500Y-84387742D01*
X181772500Y-84862258D02*
X181772500Y-84387742D01*
%TO.C,C4*%
X179161252Y-93165000D02*
X178638748Y-93165000D01*
X179161252Y-94635000D02*
X178638748Y-94635000D01*
%TO.C,5v*%
X181950000Y-99550000D02*
G75*
G02*
X179050000Y-99550000I-1450000J0D01*
G01*
X179050000Y-99550000D02*
G75*
G02*
X181950000Y-99550000I1450000J0D01*
G01*
%TO.C,R2*%
X192578641Y-89995000D02*
X192271359Y-89995000D01*
X192578641Y-90755000D02*
X192271359Y-90755000D01*
%TO.C,C10*%
X172388748Y-91190000D02*
X172911252Y-91190000D01*
X172388748Y-92660000D02*
X172911252Y-92660000D01*
D12*
%TO.C,G\u002A\u002A\u002A*%
G36*
X188116229Y-90798712D02*
G01*
X188246105Y-90833013D01*
X188362456Y-90863830D01*
X188466274Y-90891469D01*
X188558550Y-90916238D01*
X188640275Y-90938446D01*
X188712441Y-90958399D01*
X188776038Y-90976406D01*
X188832058Y-90992774D01*
X188881491Y-91007812D01*
X188925330Y-91021826D01*
X188964565Y-91035125D01*
X189000187Y-91048016D01*
X189033188Y-91060807D01*
X189064558Y-91073806D01*
X189095290Y-91087321D01*
X189126374Y-91101659D01*
X189158801Y-91117129D01*
X189188940Y-91131778D01*
X189322511Y-91203235D01*
X189442355Y-91280518D01*
X189548686Y-91363905D01*
X189641720Y-91453679D01*
X189721670Y-91550118D01*
X189788750Y-91653505D01*
X189843176Y-91764119D01*
X189885160Y-91882241D01*
X189914918Y-92008151D01*
X189928450Y-92099853D01*
X189931986Y-92145866D01*
X189933716Y-92202925D01*
X189933739Y-92267194D01*
X189932158Y-92334837D01*
X189929074Y-92402018D01*
X189924589Y-92464903D01*
X189918803Y-92519654D01*
X189916989Y-92532839D01*
X189894572Y-92655056D01*
X189864812Y-92764724D01*
X189827397Y-92862550D01*
X189782013Y-92949239D01*
X189728349Y-93025499D01*
X189671766Y-93086700D01*
X189615814Y-93134114D01*
X189556373Y-93172264D01*
X189490080Y-93202900D01*
X189413571Y-93227774D01*
X189388008Y-93234402D01*
X189325144Y-93245348D01*
X189251692Y-93250436D01*
X189170795Y-93249846D01*
X189085597Y-93243761D01*
X188999244Y-93232362D01*
X188914879Y-93215830D01*
X188870127Y-93204522D01*
X188821368Y-93191094D01*
X188817617Y-92369794D01*
X188817043Y-92239082D01*
X188816548Y-92122524D01*
X188816080Y-92019272D01*
X188815584Y-91928478D01*
X188815010Y-91849294D01*
X188814305Y-91780873D01*
X188813416Y-91722365D01*
X188812290Y-91672924D01*
X188810874Y-91631701D01*
X188809117Y-91597847D01*
X188806966Y-91570515D01*
X188804368Y-91548857D01*
X188801271Y-91532025D01*
X188797622Y-91519170D01*
X188793368Y-91509445D01*
X188788457Y-91502002D01*
X188782837Y-91495992D01*
X188776455Y-91490567D01*
X188769258Y-91484880D01*
X188762424Y-91479174D01*
X188725201Y-91454718D01*
X188681705Y-91439283D01*
X188634983Y-91432663D01*
X188588085Y-91434651D01*
X188544056Y-91445040D01*
X188505946Y-91463622D01*
X188476803Y-91490191D01*
X188470694Y-91498985D01*
X188454577Y-91525062D01*
X188451350Y-92562605D01*
X188450988Y-92686079D01*
X188450682Y-92805365D01*
X188450433Y-92919608D01*
X188450239Y-93027956D01*
X188450102Y-93129555D01*
X188450020Y-93223549D01*
X188449995Y-93309086D01*
X188450027Y-93385312D01*
X188450114Y-93451371D01*
X188450259Y-93506412D01*
X188450460Y-93549579D01*
X188450717Y-93580018D01*
X188451031Y-93596876D01*
X188451271Y-93600148D01*
X188459128Y-93597883D01*
X188478564Y-93591660D01*
X188506951Y-93582337D01*
X188541659Y-93570773D01*
X188555378Y-93566165D01*
X188776294Y-93496726D01*
X188989163Y-93439855D01*
X189194102Y-93395536D01*
X189391228Y-93363748D01*
X189580656Y-93344474D01*
X189762504Y-93337695D01*
X189936888Y-93343393D01*
X189950340Y-93344373D01*
X190126433Y-93360473D01*
X190288220Y-93380959D01*
X190435746Y-93405842D01*
X190569057Y-93435132D01*
X190688198Y-93468842D01*
X190793212Y-93506981D01*
X190884147Y-93549562D01*
X190952707Y-93590816D01*
X190995725Y-93624222D01*
X191036612Y-93663446D01*
X191071931Y-93704743D01*
X191098244Y-93744370D01*
X191103960Y-93755570D01*
X191114688Y-93781198D01*
X191120893Y-93804897D01*
X191123707Y-93832646D01*
X191124281Y-93862700D01*
X191123537Y-93897472D01*
X191120501Y-93923060D01*
X191114049Y-93945234D01*
X191103613Y-93968629D01*
X191074670Y-94017119D01*
X191036418Y-94062916D01*
X190988040Y-94106541D01*
X190928719Y-94148516D01*
X190857639Y-94189364D01*
X190773983Y-94229606D01*
X190676936Y-94269764D01*
X190572962Y-94307836D01*
X190541507Y-94318808D01*
X190497248Y-94334295D01*
X190441528Y-94353826D01*
X190375694Y-94376927D01*
X190301088Y-94403128D01*
X190219057Y-94431954D01*
X190130944Y-94462934D01*
X190038095Y-94495594D01*
X189941854Y-94529464D01*
X189843565Y-94564069D01*
X189762803Y-94592515D01*
X189589335Y-94653599D01*
X189429668Y-94709762D01*
X189283468Y-94761122D01*
X189150403Y-94807792D01*
X189030141Y-94849887D01*
X188922348Y-94887525D01*
X188826693Y-94920818D01*
X188742842Y-94949884D01*
X188670464Y-94974836D01*
X188609225Y-94995791D01*
X188558792Y-95012863D01*
X188518834Y-95026167D01*
X188489018Y-95035820D01*
X188469010Y-95041936D01*
X188458479Y-95044630D01*
X188457582Y-95044759D01*
X188447341Y-95042818D01*
X188424097Y-95036570D01*
X188389099Y-95026399D01*
X188343595Y-95012692D01*
X188288832Y-94995832D01*
X188226058Y-94976206D01*
X188156522Y-94954198D01*
X188081471Y-94930195D01*
X188002153Y-94904580D01*
X187975576Y-94895945D01*
X187512360Y-94745199D01*
X187512360Y-94606884D01*
X187512268Y-94558173D01*
X187511868Y-94522534D01*
X187510969Y-94498037D01*
X187509384Y-94482754D01*
X187506923Y-94474754D01*
X187503398Y-94472106D01*
X187499232Y-94472683D01*
X187376793Y-94508955D01*
X187263522Y-94537772D01*
X187155881Y-94559654D01*
X187050328Y-94575116D01*
X186943323Y-94584679D01*
X186831326Y-94588858D01*
X186710796Y-94588171D01*
X186709702Y-94588146D01*
X186661060Y-94586760D01*
X186615562Y-94584864D01*
X186571432Y-94582244D01*
X186526894Y-94578685D01*
X186480173Y-94573974D01*
X186429492Y-94567896D01*
X186373076Y-94560236D01*
X186309148Y-94550780D01*
X186235932Y-94539315D01*
X186151652Y-94525625D01*
X186054533Y-94509497D01*
X186045821Y-94508039D01*
X185933964Y-94488455D01*
X185835633Y-94469338D01*
X185768985Y-94454633D01*
X188450044Y-94454633D01*
X188556941Y-94418087D01*
X188579382Y-94410416D01*
X188614860Y-94398289D01*
X188662215Y-94382102D01*
X188720286Y-94362254D01*
X188787912Y-94339139D01*
X188863935Y-94313155D01*
X188947193Y-94284699D01*
X189036526Y-94254166D01*
X189130775Y-94221953D01*
X189228779Y-94188457D01*
X189329378Y-94154075D01*
X189365225Y-94141823D01*
X189464953Y-94107700D01*
X189561431Y-94074612D01*
X189653611Y-94042925D01*
X189740448Y-94013001D01*
X189820892Y-93985203D01*
X189893898Y-93959895D01*
X189958417Y-93937441D01*
X190013402Y-93918203D01*
X190057807Y-93902544D01*
X190090584Y-93890829D01*
X190110685Y-93883421D01*
X190115372Y-93881565D01*
X190174061Y-93853800D01*
X190219578Y-93825628D01*
X190251441Y-93797452D01*
X190269166Y-93769674D01*
X190272903Y-93750427D01*
X190265744Y-93726780D01*
X190244324Y-93707543D01*
X190208731Y-93692745D01*
X190159053Y-93682414D01*
X190095377Y-93676578D01*
X190035258Y-93675163D01*
X189992998Y-93675399D01*
X189954917Y-93676359D01*
X189919389Y-93678417D01*
X189884791Y-93681949D01*
X189849498Y-93687330D01*
X189811884Y-93694937D01*
X189770326Y-93705144D01*
X189723199Y-93718328D01*
X189668878Y-93734863D01*
X189605739Y-93755125D01*
X189532156Y-93779489D01*
X189446506Y-93808332D01*
X189419443Y-93817498D01*
X189333970Y-93846488D01*
X189246430Y-93876215D01*
X189158014Y-93906271D01*
X189069915Y-93936248D01*
X188983325Y-93965740D01*
X188899436Y-93994339D01*
X188819440Y-94021638D01*
X188744530Y-94047231D01*
X188675898Y-94070708D01*
X188614736Y-94091665D01*
X188562236Y-94109692D01*
X188519590Y-94124383D01*
X188487991Y-94135331D01*
X188468631Y-94142129D01*
X188463172Y-94144130D01*
X188458715Y-94147087D01*
X188455390Y-94153220D01*
X188453035Y-94164489D01*
X188451486Y-94182856D01*
X188450579Y-94210280D01*
X188450153Y-94248723D01*
X188450045Y-94300145D01*
X188450044Y-94301997D01*
X188450044Y-94454633D01*
X185768985Y-94454633D01*
X185749378Y-94450307D01*
X185673745Y-94430983D01*
X185607284Y-94410984D01*
X185548542Y-94389931D01*
X185496067Y-94367444D01*
X185480929Y-94360164D01*
X185435746Y-94334233D01*
X185394821Y-94303942D01*
X185392784Y-94301997D01*
X185361424Y-94272061D01*
X185338823Y-94241359D01*
X185337273Y-94238442D01*
X185321062Y-94190676D01*
X185316926Y-94135962D01*
X185322280Y-94094752D01*
X186262327Y-94094752D01*
X186263607Y-94111353D01*
X186277003Y-94141001D01*
X186302490Y-94170096D01*
X186337246Y-94196430D01*
X186378452Y-94217793D01*
X186415238Y-94230094D01*
X186435433Y-94233033D01*
X186465400Y-94234835D01*
X186499935Y-94235246D01*
X186514663Y-94234940D01*
X186531568Y-94234284D01*
X186547305Y-94233181D01*
X186563329Y-94231220D01*
X186581093Y-94227994D01*
X186602053Y-94223091D01*
X186627661Y-94216102D01*
X186659373Y-94206617D01*
X186698643Y-94194227D01*
X186746925Y-94178522D01*
X186805673Y-94159093D01*
X186876341Y-94135529D01*
X186923494Y-94119762D01*
X186996965Y-94095165D01*
X187070603Y-94070477D01*
X187142248Y-94046424D01*
X187209739Y-94023733D01*
X187270917Y-94003130D01*
X187323620Y-93985343D01*
X187365689Y-93971097D01*
X187386710Y-93963944D01*
X187512360Y-93921048D01*
X187512360Y-93752222D01*
X187512290Y-93697671D01*
X187511986Y-93656356D01*
X187511307Y-93626511D01*
X187510114Y-93606368D01*
X187508266Y-93594161D01*
X187505623Y-93588124D01*
X187502045Y-93586490D01*
X187499232Y-93586929D01*
X187490477Y-93589897D01*
X187468907Y-93597458D01*
X187435833Y-93609146D01*
X187392564Y-93624492D01*
X187340410Y-93643028D01*
X187280679Y-93664287D01*
X187214681Y-93687801D01*
X187143726Y-93713102D01*
X187069123Y-93739722D01*
X186992181Y-93767194D01*
X186914211Y-93795049D01*
X186836520Y-93822821D01*
X186760419Y-93850040D01*
X186687218Y-93876240D01*
X186618225Y-93900953D01*
X186554750Y-93923710D01*
X186498102Y-93944044D01*
X186449591Y-93961488D01*
X186410526Y-93975573D01*
X186382217Y-93985831D01*
X186366392Y-93991638D01*
X186324435Y-94011915D01*
X186292112Y-94037016D01*
X186270913Y-94065206D01*
X186262327Y-94094752D01*
X185322280Y-94094752D01*
X185324711Y-94076046D01*
X185344263Y-94012670D01*
X185360371Y-93976165D01*
X185397472Y-93915468D01*
X185447670Y-93856774D01*
X185509064Y-93801642D01*
X185579756Y-93751631D01*
X185657845Y-93708300D01*
X185719799Y-93681248D01*
X185737284Y-93674833D01*
X185767865Y-93664045D01*
X185810412Y-93649268D01*
X185863792Y-93630888D01*
X185926874Y-93609292D01*
X185998528Y-93584864D01*
X186077621Y-93557991D01*
X186163023Y-93529057D01*
X186253601Y-93498450D01*
X186348224Y-93466553D01*
X186445762Y-93433753D01*
X186454652Y-93430768D01*
X186555946Y-93396741D01*
X186656957Y-93362784D01*
X186756270Y-93329375D01*
X186852468Y-93296991D01*
X186944137Y-93266109D01*
X187029862Y-93237207D01*
X187108225Y-93210761D01*
X187177814Y-93187249D01*
X187237211Y-93167147D01*
X187285001Y-93150934D01*
X187315424Y-93140571D01*
X187512315Y-93073304D01*
X187514213Y-91856820D01*
X187516111Y-90640337D01*
X188116229Y-90798712D01*
G37*
D13*
%TO.C,C17*%
X150886252Y-88790000D02*
X150363748Y-88790000D01*
X150886252Y-90260000D02*
X150363748Y-90260000D01*
%TO.C,C8*%
X169511252Y-91190000D02*
X168988748Y-91190000D01*
X169511252Y-92660000D02*
X168988748Y-92660000D01*
%TO.C,R4*%
X179252500Y-84862258D02*
X179252500Y-84387742D01*
X180297500Y-84862258D02*
X180297500Y-84387742D01*
%TO.C,C5*%
X182038748Y-91190000D02*
X182561252Y-91190000D01*
X182038748Y-92660000D02*
X182561252Y-92660000D01*
D10*
%TO.C,U1*%
X182075001Y-84790002D02*
X182075001Y-83490000D01*
X184175001Y-84790002D02*
X184175001Y-83490000D01*
D14*
X182750003Y-85765002D02*
G75*
G02*
X182500001Y-85765002I-125001J0D01*
G01*
X182500001Y-85765002D02*
G75*
G02*
X182750003Y-85765002I125001J0D01*
G01*
%TD*%
M02*
