%TF.GenerationSoftware,KiCad,Pcbnew,8.0.5*%
%TF.CreationDate,2024-11-27T10:58:11-07:00*%
%TF.ProjectId,PS2 PSU,50533220-5053-4552-9e6b-696361645f70,rev?*%
%TF.SameCoordinates,Original*%
%TF.FileFunction,Soldermask,Bot*%
%TF.FilePolarity,Negative*%
%FSLAX46Y46*%
G04 Gerber Fmt 4.6, Leading zero omitted, Abs format (unit mm)*
G04 Created by KiCad (PCBNEW 8.0.5) date 2024-11-27 10:58:11*
%MOMM*%
%LPD*%
G01*
G04 APERTURE LIST*
%ADD10C,0.700000*%
%ADD11C,4.400000*%
%ADD12C,2.010000*%
G04 APERTURE END LIST*
D10*
%TO.C,REF\u002A\u002A*%
X196350000Y-81825000D03*
X196833274Y-80658274D03*
X196833274Y-82991726D03*
X198000000Y-80175000D03*
D11*
X198000000Y-81825000D03*
D10*
X198000000Y-83475000D03*
X199166726Y-80658274D03*
X199166726Y-82991726D03*
X199650000Y-81825000D03*
%TD*%
D12*
%TO.C,J1*%
X195377000Y-86555000D03*
X199177000Y-86555000D03*
X199177000Y-95195000D03*
X195377000Y-95195000D03*
%TD*%
D10*
%TO.C,REF\u002A\u002A*%
X142275000Y-81850000D03*
X142758274Y-80683274D03*
X142758274Y-83016726D03*
X143925000Y-80200000D03*
D11*
X143925000Y-81850000D03*
D10*
X143925000Y-83500000D03*
X145091726Y-80683274D03*
X145091726Y-83016726D03*
X145575000Y-81850000D03*
%TD*%
%TO.C,REF\u002A\u002A*%
X142300000Y-99800000D03*
X142783274Y-98633274D03*
X142783274Y-100966726D03*
X143950000Y-98150000D03*
D11*
X143950000Y-99800000D03*
D10*
X143950000Y-101450000D03*
X145116726Y-98633274D03*
X145116726Y-100966726D03*
X145600000Y-99800000D03*
%TD*%
%TO.C,REF\u002A\u002A*%
X196325000Y-99900000D03*
X196808274Y-98733274D03*
X196808274Y-101066726D03*
X197975000Y-98250000D03*
D11*
X197975000Y-99900000D03*
D10*
X197975000Y-101550000D03*
X199141726Y-98733274D03*
X199141726Y-101066726D03*
X199625000Y-99900000D03*
%TD*%
M02*
