%TF.GenerationSoftware,KiCad,Pcbnew,8.0.5*%
%TF.CreationDate,2024-11-27T10:58:11-07:00*%
%TF.ProjectId,PS2 PSU,50533220-5053-4552-9e6b-696361645f70,rev?*%
%TF.SameCoordinates,Original*%
%TF.FileFunction,Paste,Top*%
%TF.FilePolarity,Positive*%
%FSLAX46Y46*%
G04 Gerber Fmt 4.6, Leading zero omitted, Abs format (unit mm)*
G04 Created by KiCad (PCBNEW 8.0.5) date 2024-11-27 10:58:11*
%MOMM*%
%LPD*%
G01*
G04 APERTURE LIST*
G04 Aperture macros list*
%AMRoundRect*
0 Rectangle with rounded corners*
0 $1 Rounding radius*
0 $2 $3 $4 $5 $6 $7 $8 $9 X,Y pos of 4 corners*
0 Add a 4 corners polygon primitive as box body*
4,1,4,$2,$3,$4,$5,$6,$7,$8,$9,$2,$3,0*
0 Add four circle primitives for the rounded corners*
1,1,$1+$1,$2,$3*
1,1,$1+$1,$4,$5*
1,1,$1+$1,$6,$7*
1,1,$1+$1,$8,$9*
0 Add four rect primitives between the rounded corners*
20,1,$1+$1,$2,$3,$4,$5,0*
20,1,$1+$1,$4,$5,$6,$7,0*
20,1,$1+$1,$6,$7,$8,$9,0*
20,1,$1+$1,$8,$9,$2,$3,0*%
G04 Aperture macros list end*
%ADD10C,0.010000*%
%ADD11RoundRect,0.135000X0.135000X0.185000X-0.135000X0.185000X-0.135000X-0.185000X0.135000X-0.185000X0*%
%ADD12RoundRect,0.250000X-0.475000X0.250000X-0.475000X-0.250000X0.475000X-0.250000X0.475000X0.250000X0*%
%ADD13RoundRect,0.200000X0.275000X-0.200000X0.275000X0.200000X-0.275000X0.200000X-0.275000X-0.200000X0*%
%ADD14R,0.299999X0.670001*%
%ADD15R,0.980000X3.400000*%
%ADD16RoundRect,0.250000X-0.250000X-0.475000X0.250000X-0.475000X0.250000X0.475000X-0.250000X0.475000X0*%
%ADD17RoundRect,0.007500X0.142500X-0.217500X0.142500X0.217500X-0.142500X0.217500X-0.142500X-0.217500X0*%
%ADD18R,1.200000X0.700000*%
%ADD19R,1.200000X0.760000*%
%ADD20R,1.200000X0.800000*%
%ADD21RoundRect,0.250000X0.250000X0.475000X-0.250000X0.475000X-0.250000X-0.475000X0.250000X-0.475000X0*%
G04 APERTURE END LIST*
D10*
%TO.C,U4*%
X152125000Y-87075000D02*
X151425000Y-87075000D01*
X151425000Y-86075000D01*
X152125000Y-86075000D01*
X152125000Y-87075000D01*
G36*
X152125000Y-87075000D02*
G01*
X151425000Y-87075000D01*
X151425000Y-86075000D01*
X152125000Y-86075000D01*
X152125000Y-87075000D01*
G37*
X153025000Y-87075000D02*
X152325000Y-87075000D01*
X152325000Y-86075000D01*
X153025000Y-86075000D01*
X153025000Y-87075000D01*
G36*
X153025000Y-87075000D02*
G01*
X152325000Y-87075000D01*
X152325000Y-86075000D01*
X153025000Y-86075000D01*
X153025000Y-87075000D01*
G37*
%TD*%
D11*
%TO.C,R1*%
X192935000Y-91375000D03*
X191915000Y-91375000D03*
%TD*%
D12*
%TO.C,C12*%
X165875000Y-84150000D03*
X165875000Y-86050000D03*
%TD*%
D13*
%TO.C,R8*%
X162050000Y-85450000D03*
X162050000Y-83800000D03*
%TD*%
D14*
%TO.C,U2*%
X173050001Y-84890001D03*
X173550000Y-84890001D03*
X174049999Y-84890001D03*
X174049999Y-83409999D03*
X173550000Y-83409999D03*
X173050001Y-83409999D03*
%TD*%
D15*
%TO.C,L3*%
X162935000Y-88525000D03*
X160565000Y-88525000D03*
%TD*%
D12*
%TO.C,C6*%
X177475000Y-84150000D03*
X177475000Y-86050000D03*
%TD*%
D13*
%TO.C,R6*%
X171675000Y-85450000D03*
X171675000Y-83800000D03*
%TD*%
D12*
%TO.C,C1*%
X187075000Y-84150000D03*
X187075000Y-86050000D03*
%TD*%
D16*
%TO.C,C16*%
X152975000Y-84125000D03*
X154875000Y-84125000D03*
%TD*%
D17*
%TO.C,U4*%
X151575000Y-87550000D03*
X152225000Y-87550000D03*
X152875000Y-87550000D03*
X152875000Y-85600000D03*
X152225000Y-85600000D03*
X151575000Y-85600000D03*
%TD*%
D18*
%TO.C,J1*%
X195297000Y-91375000D03*
D19*
X195297000Y-89355000D03*
D20*
X195297000Y-88125000D03*
D18*
X195297000Y-90375000D03*
D19*
X195297000Y-92395000D03*
D20*
X195297000Y-93625000D03*
%TD*%
D14*
%TO.C,U3*%
X163425002Y-84905002D03*
X163925001Y-84905002D03*
X164425000Y-84905002D03*
X164425000Y-83425000D03*
X163925001Y-83425000D03*
X163425002Y-83425000D03*
%TD*%
D13*
%TO.C,R5*%
X170200000Y-85450000D03*
X170200000Y-83800000D03*
%TD*%
D21*
%TO.C,C3*%
X179850000Y-91925000D03*
X177950000Y-91925000D03*
%TD*%
%TO.C,C14*%
X160575000Y-93900000D03*
X158675000Y-93900000D03*
%TD*%
D12*
%TO.C,C7*%
X175500000Y-84150000D03*
X175500000Y-86050000D03*
%TD*%
D13*
%TO.C,R7*%
X160575000Y-85450000D03*
X160575000Y-83800000D03*
%TD*%
D21*
%TO.C,C9*%
X170200000Y-93900000D03*
X168300000Y-93900000D03*
%TD*%
%TO.C,C18*%
X151575000Y-91500000D03*
X149675000Y-91500000D03*
%TD*%
%TO.C,C19*%
X151475000Y-84125000D03*
X149575000Y-84125000D03*
%TD*%
%TO.C,C13*%
X160575000Y-91925000D03*
X158675000Y-91925000D03*
%TD*%
D12*
%TO.C,C11*%
X167850000Y-84150000D03*
X167850000Y-86050000D03*
%TD*%
D15*
%TO.C,L1*%
X182200001Y-88525001D03*
X179830001Y-88525001D03*
%TD*%
%TO.C,L2*%
X172560000Y-88525000D03*
X170190000Y-88525000D03*
%TD*%
D12*
%TO.C,C2*%
X185075000Y-84150000D03*
X185075000Y-86050000D03*
%TD*%
D16*
%TO.C,C15*%
X162075000Y-91925000D03*
X163975000Y-91925000D03*
%TD*%
D13*
%TO.C,R3*%
X181250000Y-85450000D03*
X181250000Y-83800000D03*
%TD*%
D21*
%TO.C,C4*%
X179850000Y-93900000D03*
X177950000Y-93900000D03*
%TD*%
D11*
%TO.C,R2*%
X192935000Y-90375000D03*
X191915000Y-90375000D03*
%TD*%
D16*
%TO.C,C10*%
X171700000Y-91925000D03*
X173600000Y-91925000D03*
%TD*%
D21*
%TO.C,C17*%
X151575000Y-89525000D03*
X149675000Y-89525000D03*
%TD*%
%TO.C,C8*%
X170200000Y-91925000D03*
X168300000Y-91925000D03*
%TD*%
D13*
%TO.C,R4*%
X179775000Y-85450000D03*
X179775000Y-83800000D03*
%TD*%
D16*
%TO.C,C5*%
X181350000Y-91925000D03*
X183250000Y-91925000D03*
%TD*%
D14*
%TO.C,U1*%
X182625002Y-84880002D03*
X183125001Y-84880002D03*
X183625000Y-84880002D03*
X183625000Y-83400000D03*
X183125001Y-83400000D03*
X182625002Y-83400000D03*
%TD*%
M02*
