%TF.GenerationSoftware,KiCad,Pcbnew,8.0.5*%
%TF.CreationDate,2024-11-27T10:58:11-07:00*%
%TF.ProjectId,PS2 PSU,50533220-5053-4552-9e6b-696361645f70,rev?*%
%TF.SameCoordinates,Original*%
%TF.FileFunction,Legend,Bot*%
%TF.FilePolarity,Positive*%
%FSLAX46Y46*%
G04 Gerber Fmt 4.6, Leading zero omitted, Abs format (unit mm)*
G04 Created by KiCad (PCBNEW 8.0.5) date 2024-11-27 10:58:11*
%MOMM*%
%LPD*%
G01*
G04 APERTURE LIST*
%ADD10C,0.000000*%
G04 APERTURE END LIST*
D10*
%TO.C,G\u002A\u002A\u002A*%
G36*
X167948896Y-87446126D02*
G01*
X168727665Y-87448620D01*
X169440751Y-87454107D01*
X170068427Y-87462217D01*
X170590962Y-87472578D01*
X170988627Y-87484820D01*
X171241695Y-87498573D01*
X171330435Y-87513464D01*
X171319896Y-87534106D01*
X171211687Y-87665305D01*
X171005020Y-87890887D01*
X170723012Y-88185998D01*
X170388782Y-88525783D01*
X169447129Y-89470652D01*
X166799652Y-89470652D01*
X164152174Y-89470652D01*
X164152174Y-88458333D01*
X164152174Y-87446014D01*
X167741304Y-87446014D01*
X167948896Y-87446126D01*
G37*
G36*
X183777881Y-87446126D02*
G01*
X184556650Y-87448620D01*
X185269737Y-87454107D01*
X185897412Y-87462217D01*
X186419947Y-87472578D01*
X186817613Y-87484820D01*
X187070680Y-87498573D01*
X187159420Y-87513464D01*
X187148881Y-87534106D01*
X187040673Y-87665305D01*
X186834005Y-87890887D01*
X186551997Y-88185998D01*
X186217768Y-88525783D01*
X185276115Y-89470652D01*
X182628637Y-89470652D01*
X179981159Y-89470652D01*
X179981159Y-88458333D01*
X179981159Y-87446014D01*
X183570290Y-87446014D01*
X183777881Y-87446126D01*
G37*
G36*
X191507022Y-84895421D02*
G01*
X191521236Y-85076770D01*
X191534406Y-85416387D01*
X191546270Y-85897503D01*
X191556565Y-86503354D01*
X191565029Y-87217173D01*
X191571400Y-88022192D01*
X191575415Y-88901646D01*
X191576812Y-89838768D01*
X191576812Y-94808333D01*
X185778986Y-94808333D01*
X179981159Y-94808333D01*
X179981159Y-93796014D01*
X179981159Y-92783695D01*
X181867754Y-92783695D01*
X181913543Y-92783674D01*
X182517409Y-92779127D01*
X183025482Y-92767322D01*
X183415702Y-92749258D01*
X183666010Y-92725933D01*
X183754348Y-92698346D01*
X183753775Y-92692017D01*
X183677483Y-92575684D01*
X183511865Y-92422259D01*
X183440617Y-92370739D01*
X183331467Y-92315943D01*
X183183749Y-92277707D01*
X182968366Y-92253088D01*
X182656223Y-92239145D01*
X182218223Y-92232937D01*
X181625270Y-92231521D01*
X179981159Y-92231521D01*
X179981159Y-91219202D01*
X179981159Y-90206884D01*
X181983698Y-90206884D01*
X183986237Y-90206884D01*
X185727890Y-91950348D01*
X185731294Y-91953756D01*
X186194846Y-92413381D01*
X186617326Y-92823991D01*
X186981137Y-93169144D01*
X187268678Y-93432400D01*
X187462350Y-93597316D01*
X187544554Y-93647453D01*
X187565163Y-93618934D01*
X187604109Y-93449701D01*
X187619565Y-93192394D01*
X187619565Y-92783695D01*
X188585870Y-92783695D01*
X189552174Y-92783695D01*
X189552174Y-89786994D01*
X189552174Y-86790293D01*
X190486713Y-85829748D01*
X190629496Y-85683918D01*
X190951032Y-85362663D01*
X191219613Y-85104156D01*
X191410519Y-84931850D01*
X191499032Y-84869202D01*
X191507022Y-84895421D01*
G37*
G36*
X178252664Y-88432312D02*
G01*
X179244928Y-89421498D01*
X179244928Y-92114916D01*
X179244928Y-94808333D01*
X171698551Y-94808333D01*
X164152174Y-94808333D01*
X164152174Y-93796014D01*
X164152174Y-92783695D01*
X166038768Y-92783695D01*
X166084557Y-92783674D01*
X166688424Y-92779127D01*
X167196496Y-92767322D01*
X167586716Y-92749258D01*
X167837024Y-92725933D01*
X167925362Y-92698346D01*
X167924789Y-92692017D01*
X167848497Y-92575684D01*
X167682879Y-92422259D01*
X167611632Y-92370739D01*
X167502482Y-92315943D01*
X167354764Y-92277707D01*
X167139381Y-92253088D01*
X166827237Y-92239145D01*
X166389237Y-92232937D01*
X165796285Y-92231521D01*
X164152174Y-92231521D01*
X164152174Y-91219202D01*
X164152174Y-90206884D01*
X166154667Y-90206884D01*
X168157161Y-90206884D01*
X169996877Y-92048548D01*
X171836594Y-93890213D01*
X171882609Y-92071555D01*
X171928623Y-90252898D01*
X174206341Y-90228283D01*
X174699526Y-90224595D01*
X175275930Y-90224865D01*
X175767346Y-90230296D01*
X176149012Y-90240406D01*
X176396170Y-90254710D01*
X176484058Y-90272726D01*
X176473539Y-90293578D01*
X176365356Y-90425294D01*
X176158690Y-90651312D01*
X175876665Y-90946732D01*
X175542405Y-91286653D01*
X175182551Y-91644404D01*
X174903362Y-91909192D01*
X174698231Y-92080263D01*
X174539840Y-92177652D01*
X174400869Y-92221393D01*
X174253999Y-92231521D01*
X174213581Y-92231642D01*
X174007297Y-92249203D01*
X173923234Y-92326821D01*
X173907246Y-92507608D01*
X173907246Y-92783695D01*
X175563768Y-92783695D01*
X177220290Y-92783695D01*
X177217800Y-91472282D01*
X177215310Y-90160869D01*
X176895908Y-89817341D01*
X176576507Y-89473813D01*
X174252565Y-89449225D01*
X171928623Y-89424637D01*
X171928623Y-88458333D01*
X171928623Y-87492029D01*
X174594512Y-87467577D01*
X177260401Y-87443126D01*
X178252664Y-88432312D01*
G37*
G36*
X163359395Y-86326155D02*
G01*
X163372635Y-86569500D01*
X163384643Y-86962115D01*
X163395128Y-87485940D01*
X163403793Y-88122912D01*
X163410347Y-88854970D01*
X163414494Y-89664053D01*
X163415942Y-90532099D01*
X163415942Y-94814560D01*
X162426630Y-94788439D01*
X161437319Y-94762318D01*
X161412387Y-92833822D01*
X161387455Y-90905325D01*
X158831787Y-93455018D01*
X158681871Y-93604393D01*
X158123602Y-94157239D01*
X157607167Y-94663430D01*
X157147205Y-95108970D01*
X156758356Y-95479863D01*
X156455258Y-95762114D01*
X156252550Y-95941728D01*
X156164871Y-96004710D01*
X156149073Y-95994669D01*
X156120989Y-95905830D01*
X156098488Y-95714030D01*
X156081110Y-95405757D01*
X156068394Y-94967498D01*
X156059881Y-94385741D01*
X156055111Y-93646973D01*
X156053623Y-92737681D01*
X156053623Y-89470652D01*
X153457685Y-89470652D01*
X150861746Y-89470652D01*
X150512757Y-89811430D01*
X150163768Y-90152209D01*
X150163768Y-91467952D01*
X150163768Y-92783695D01*
X151817763Y-92783695D01*
X153471758Y-92783695D01*
X153497292Y-91472282D01*
X153522826Y-90160869D01*
X154512138Y-90134748D01*
X155501449Y-90108628D01*
X155501449Y-92459536D01*
X155501449Y-94810445D01*
X151843297Y-94786382D01*
X148185145Y-94762318D01*
X148160695Y-92157028D01*
X148136246Y-89551738D01*
X149124446Y-88498876D01*
X150112647Y-87446014D01*
X154095454Y-87446014D01*
X158078261Y-87446014D01*
X158078261Y-89378623D01*
X158078605Y-89570688D01*
X158083704Y-90125590D01*
X158094154Y-90603980D01*
X158108984Y-90978974D01*
X158127225Y-91223686D01*
X158147910Y-91311231D01*
X158155144Y-91307689D01*
X158261746Y-91216222D01*
X158480272Y-91011499D01*
X158796304Y-90707560D01*
X159195422Y-90318444D01*
X159663207Y-89858191D01*
X160185240Y-89340841D01*
X160747101Y-88780434D01*
X160881333Y-88646234D01*
X161435170Y-88094641D01*
X161945806Y-87589388D01*
X162398821Y-87144517D01*
X162779796Y-86774067D01*
X163074313Y-86492077D01*
X163267951Y-86312587D01*
X163346293Y-86249637D01*
X163359395Y-86326155D01*
G37*
%TD*%
M02*
