M48
; DRILL file {KiCad 8.0.5} date 2024-11-27T10:58:14-0700
; FORMAT={-:-/ absolute / inch / decimal}
; #@! TF.CreationDate,2024-11-27T10:58:14-07:00
; #@! TF.GenerationSoftware,Kicad,Pcbnew,8.0.5
; #@! TF.FileFunction,Plated,1,2,PTH
FMAT,2
INCH
; #@! TA.AperFunction,Plated,PTH,ViaDrill
T1C0.0118
; #@! TA.AperFunction,Plated,PTH,ComponentDrill
T2C0.0157
; #@! TA.AperFunction,Plated,PTH,ComponentDrill
T3C0.0528
; #@! TA.AperFunction,Plated,PTH,ComponentDrill
T4C0.0866
%
G90
G05
T1
X5.8465Y-3.2963
X5.8465Y-3.3278
X5.8494Y-3.5876
X5.8494Y-3.6191
X5.8504Y-3.5089
X5.8504Y-3.5404
X5.9242Y-3.377
X5.9242Y-3.4085
X5.9242Y-3.44
X5.9783Y-3.4085
X6.0079Y-3.4085
X6.063Y-3.377
X6.063Y-3.4085
X6.063Y-3.44
X6.127Y-3.9035
X6.127Y-3.935
X6.1398Y-3.3002
X6.1398Y-3.3317
X6.1585Y-3.9035
X6.1585Y-3.935
X6.19Y-3.9035
X6.19Y-3.935
X6.2037Y-3.6831
X6.2037Y-3.7146
X6.2047Y-3.6043
X6.2047Y-3.6358
X6.4134Y-3.3356
X6.4134Y-3.3681
X6.435Y-3.313
X6.499Y-3.9045
X6.499Y-3.936
X6.5Y-3.6033
X6.5Y-3.6348
X6.5148Y-3.4301
X6.5305Y-3.9045
X6.5305Y-3.936
X6.5463Y-3.4301
X6.562Y-3.9045
X6.562Y-3.936
X6.5827Y-3.6831
X6.5827Y-3.7146
X6.5837Y-3.6043
X6.5837Y-3.6358
X6.5935Y-3.4301
X6.625Y-3.4301
X6.7923Y-3.3356
X6.7923Y-3.3681
X6.815Y-3.313
X6.878Y-3.6014
X6.878Y-3.6329
X6.8829Y-3.9045
X6.8829Y-3.936
X6.8927Y-3.4301
X6.9144Y-3.9045
X6.9144Y-3.936
X6.9242Y-3.4301
X6.9459Y-3.9045
X6.9459Y-3.936
X6.9626Y-3.6821
X6.9626Y-3.7136
X6.9636Y-3.6033
X6.9636Y-3.6348
X6.9705Y-3.4301
X7.002Y-3.4301
X7.1693Y-3.3356
X7.1693Y-3.3681
X7.1909Y-3.313
X7.2589Y-3.6024
X7.2589Y-3.6339
X7.2707Y-3.4301
X7.3022Y-3.4301
X7.3514Y-3.4301
X7.3691Y-3.8878
X7.3691Y-3.9193
X7.3691Y-3.9508
X7.3829Y-3.4301
X7.4006Y-3.8878
X7.4006Y-3.9193
X7.4006Y-3.9508
X7.5315Y-3.5581
X7.5315Y-3.5974
T2
X5.6014Y-3.2224
X5.6024Y-3.9291
X5.6204Y-3.1765
X5.6204Y-3.2684
X5.6214Y-3.8832
X5.6214Y-3.9751
X5.6663Y-3.1575
X5.6663Y-3.2874
X5.6673Y-3.8642
X5.6673Y-3.9941
X5.7123Y-3.1765
X5.7123Y-3.2684
X5.7133Y-3.8832
X5.7133Y-3.9751
X5.7313Y-3.2224
X5.7323Y-3.9291
X7.7293Y-3.9331
X7.7303Y-3.2215
X7.7484Y-3.8871
X7.7484Y-3.979
X7.7493Y-3.1755
X7.7493Y-3.2674
X7.7943Y-3.8681
X7.7943Y-3.998
X7.7953Y-3.1565
X7.7953Y-3.2864
X7.8402Y-3.8871
X7.8402Y-3.979
X7.8412Y-3.1755
X7.8412Y-3.2674
X7.8593Y-3.9331
X7.8602Y-3.2215
T3
X7.692Y-3.4077
X7.692Y-3.7478
X7.8416Y-3.4077
X7.8416Y-3.7478
T4
X5.6663Y-3.2224
X5.6673Y-3.9291
X7.7943Y-3.9331
X7.7953Y-3.2215
M30
